<svg xmlns="http://www.w3.org/2000/svg" xmlns:xlink="http://www.w3.org/1999/xlink" viewBox="0 0 600 600" xmlns:v="https://vecta.io/nano"><path d="M575.17 564.71c-7.74-1.9-15.74-2.35-23.6-3.54-19.58-3.31-39.35-5.31-59.17-6.32-25.75-1.73-51.56-1.3-77.35-1.56-11.82-.11-23.6-1.24-35.39-2.02-8.3-.36-16.62-.35-24.93-.33-13.99-.04-28.01.28-41.93 1.79-20.66 2.09-41.17 5.55-61.89 7.13-21.35 2.1-42.87 3.08-64.28 1.31-15.03-1.75-29.94-4.38-44.99-6.05-13.98-1.34-28.01-2.59-42.07-2.62a59.18 59.18 0 0 0-14.09 1.7c-2.85.55-5.55 1.97-8.47 2.03-.04-3.34.26-6.67.54-9.99.13-3.33.05-6.67.1-10-.05-6.66 1.21-13.22 1.81-19.83.68-5.51.68-11.06.52-16.6-1.13-16.83-1.28-33.69-2.09-50.54-.35-13.72-.36-27.45-1.37-41.15-2.58-38.08-7.01-76.02-13.07-113.7-5-36.04-9.17-72.19-12.76-108.4l-4.12-48.24c-2.1-20.51-5.46-40.86-8.72-61.21-1.82-12.56-3.24-25.17-4.17-37.83-.25-1.6-.61-3.24-1.56-4.58-.74-.82-1.61-1.53-2.42-2.22-.83.47-.79 1.66-1.1 2.46l.73-1.57c.05.14.13.28.24.43.54.98 1.27 1.94 1.36 3.1.81 4.32-.62 8.64-1.1 12.91l-1.92 17.21c-2 20.74-1.57 41.6-1.27 62.41.38 34.06 3.08 68 6.89 101.83 3.29 30.73 6.95 61.44 11.55 92.01 5.82 37.02 9.71 74.35 11.97 111.75.55 10.69.53 21.41.84 32.11l.92 25.5c.08 10.77 1.27 21.49 1.27 32.26-.05 8.42-1.55 16.73-2.3 25.09-.32 6.46.14 12.93-.62 19.37-.09 1.52-.14 3.04-.15 4.56v.34c-2.01 5 7.5 1.15 10.56.47 3.57-.84 7.2-1.46 10.87-1.6 15.03-.39 30.04 1.15 44.99 2.5 20.37 2.19 40.49 6.6 61.03 6.95 30.34.56 60.57-3.04 90.61-6.97 12.27-1.64 24.58-2.93 36.93-3.69 12.22-.47 24.44-.43 36.66-.42 17.52.07 34.92 2.43 52.44 2.44 20.55.06 41.1.2 61.64-.74 19.12-.69 38.19-2.27 57.29-3.26l26.12-1.49c8.39-.63 16.74-1.8 25.14-2.35 2.23-.07 4.45-.12 6.67-.31-.95-.11-1.87-.31-2.79-.53z" fill="#2e3440"/><path d="M515.5 492.78c-3.82-7.06-8.32-13.7-12.76-20.38-4.3-6.3-8.27-12.85-13.1-18.77-18.26-23.52-37.98-45.82-58.94-66.95-30.64-29.96-62.19-59-93.53-88.22l-48.61-43.06-73.58-60.11c-30.12-24.1-60.67-47.8-93.93-67.46-16.29-9.88-33-19.11-50.38-26.95-5.02-2.07-9.96-5.1-15.54-4.97 5.63.98 9.85 5.36 14.49 8.39 15.11 10.97 29.62 22.73 44.11 34.5l47.72 38.85 26.78 21.01c29.34 22.92 58.04 46.6 86.57 70.52l54.9 49.03 87.18 82.89c17.33 16.66 35.48 32.43 53.1 48.78 5.68 5.25 11.64 10.22 17.28 15.51 9.54 9.76 19.7 18.9 28.92 28.96l.54.57-1.22-2.14z" fill="#bf616a"/><defs><path id="A" d="M347.16 43.14h14.72c47.72 0 86.4 41.69 86.4 93.12s-38.68 93.12-86.4 93.12h-14.72v-40.93h14.72c26.74 0 48.42-23.37 48.42-52.19s-21.68-52.19-48.42-52.19h-14.72V43.14zm68.84 0h60.76c29.1 0 52.69 25.43 52.69 56.79 0 13.27-4.31 26.13-12.19 36.33 18.61 24.11 15.57 59.92-6.8 79.99-9.47 8.49-21.39 13.14-33.71 13.14H416c14.95-10.09 27.22-24.2 35.6-40.93h25.17c8.13 0 14.72-7.1 14.72-15.86s-6.59-15.86-14.72-15.86h-14.72a118.21 118.21 0 0 0 0-40.93h14.72c8.13 0 14.72-7.1 14.72-15.86s-6.59-15.86-14.72-15.86H451.6c-8.39-16.75-20.65-30.86-35.6-40.95z"/></defs><clipPath id="B"><use xlink:href="#A"/></clipPath><g clip-path="url(#B)"><linearGradient id="C" gradientUnits="userSpaceOnUse" x1="61.067" y1="570.983" x2="85.667" y2="546.383" gradientTransform="matrix(3.4483 0 0 -3.4483 36.931 2253.6897)"><stop offset="0" stop-color="#f9a03c"/><stop offset="1" stop-color="#f7974e"/></linearGradient><path d="M104.1-165.62v614h569.66l-569.66-614z" fill="url(#C)"/><linearGradient id="D" gradientUnits="userSpaceOnUse" x1="547.93" y1="-90.814" x2="672.216" y2="33.472"><stop offset="0" stop-color="#b84e51"/><stop offset="1" stop-color="#f68e48"/></linearGradient><path d="M210.44-165.62H780.1v614l-569.66-614z" fill="url(#D)"/><linearGradient id="E" gradientUnits="userSpaceOnUse" x1="89.176" y1="641.227" x2="138.594" y2="591.228" gradientTransform="matrix(3.4483 0 0 -3.4483 36.931 2253.6897)"><stop offset="0" stop-color="#f26d58"/><stop offset="1" stop-color="#f9a03c"/></linearGradient><path d="M157.27-165.62l569.66,614" fill="none" stroke="url(#E)" stroke-width="137.931" stroke-miterlimit="13.7931"/></g><path d="M119.11 203.87c-1.36-3.9-4.29-7.55-8-9.56-1.72-2.56-3.95-4.68-6.33-5.74-5.17-1.93-14.73 8.86-17.88 12.62-4.47 5.36-4.32 8.83-1.98 15.17 1.94 4.73 5.18 10.14 10.39 11.54 1.54.84 3.26 1.33 5.02 1.31 1.95-.23 3.63-1.44 5.14-2.62 2.02-1.64 3.89-3.52 5.38-5.66.59-.88 1.14-1.9.81-2.97 2.05-2.14 3.95-4.43 5.62-6.86 1.37-2.11 2.67-4.67 1.83-7.23zm134.25 79.45c-1.43-2.89-3.91-4.89-7.48-3.05-5.81.6-11.19 6.79-14.99 10.58-2.31 2.77-5.12 5.68-5.62 9.39a10.24 10.24 0 0 0 .06 1.35c-.78 2.15-1.06 4.43-.44 6.77.55 3.44 1.58 7.53 5.3 8.74 6 2.43 17.96-10.54 21.6-14.97 1.98-2.59 4.04-5.31 4.72-8.56.18-3.46-.82-7.52-3.15-10.25zm99.41 158.09c-1-2.72-3.08-5.62-6.12-6.11-3.95-.82-8.08 1.36-11.8 4.21-1.93.91-3.78 2.27-5.4 3.75-2.3 2.25-5.02 4.68-6.49 7.64-2.68 3.06-5.09 6.34-6.31 10.23-1.15 4.44.21 10.88 4.94 12.42 2.36 5.24 7.32 4.08 13.8-1.12 6.27-5.19 12.2-11.09 16.26-18.21a15.77 15.77 0 0 0 1.12-12.81zm192.79-3.9c-.3-3.99-3.07-7.88-7.32-8.04-6.1.7-10.93 5.95-15.29 9.88-4.02 4.29-8.57 8.73-10.15 14.56-.72 4.83.89 10.65 5.26 13.28 4.06 1.88 8.21-.8 11.34-3.29 3.37-2.76 6.5-5.83 9.19-9.25 1.36-1.64 2.54-3.5 3.2-5.46 2.48-3.41 4.4-7.38 3.77-11.68zM296.9 154.53c-4.9-5.78-11.74-1.25-16.41 2.38-6.23 5.05-11.94 10.85-16.42 17.51-2.34 3.5-4.02 7.82-2.86 12.07.53 2.8 1.44 6.06 4.2 7.41 1.06.54 2.25.77 3.42.88.82-.05 1.61-.32 2.38-.64 2.5.23 5.05-1.18 7.39-2.74 1.12-.79 2.2-1.62 3.26-2.47 1.66-.8 3.19-1.9 4.64-3.04 3.9-3.4 8.12-7.11 9.92-12.08.14-.45.22-.9.24-1.35 1.29-2.21 2.31-4.57 2.71-7.12.41-3.67-.22-7.79-2.47-10.81z" fill="#bf616a"/><path d="M97.45 125.22c1.95 24.51 3.39 49.07 4.32 73.64.02.65-.38 1.24-.56 1.87-.19.63 0 1.5.65 1.61s.7-1.27.1-1.01m143.68 40.64l-.51 54.43.93-4.01m37.73-110.17l-2.1 73.55 2.71-2.27m57.41 78.36a1522.9 1522.9 0 0 0-4.05 111.83m179.38 14.24l-1.86 34" fill="none" stroke="#bf616a" stroke-width="1.5" stroke-miterlimit="10" stroke-dasharray="2,5,2,5,2,5"/></svg>