<svg xmlns="http://www.w3.org/2000/svg" xmlns:xlink="http://www.w3.org/1999/xlink" width="720" height="405" xmlns:v="https://vecta.io/nano"><g fill-rule="evenodd"><path d="M499.51 204.48l-42.87 16.43c-18.8 10.49-34.48 25.77-45.45 44.29l-6.36 10.73a101.35 101.35 0 0 0-12.77 34.98c-2.87 17.23-35.77 70.86-36.41 75.96-.9 7.19 74 8.79 90.37 12.93 2.46.62 1.95-2.9 4.47-2.55l125.24.83 54.74-1.58c22.05-.64 43.01-9.77 58.5-25.48l1.13-1.15c11.74-11.91 19.58-27.12 22.48-43.6l1.54-8.76c1.72-9.79.6-19.92-3.51-28.97-12.96-28.53-42.09-59.39-67.7-68.71l-77.83-27.87" fill="#d1b736" stroke="#d1b736" stroke-miterlimit="10"/><path d="M610.32 289c-.55-13.31-2.35-26.53-3.16-39.83-1.7-26.5-3.98-53.09-10.65-78.87-5.2-22.14-13.09-43.93-26.51-62.49-10.93-16.25-22.4-32.45-37.29-45.35-4.02-3.69-8.26-7.15-12.73-10.27-4.65-3.4-9.81-6.35-15.51-7.49-2.75-.49-5.58 0-8.21.85-1.79.66-3.76 1.26-4.99 2.81 2.22-1.48 5.11-1.37 7.69-1.44 3.58-.02 6.95 1.36 9.89 3.32 4.61 2.77 8.43 6.58 12.28 10.29 8.73 8.67 16.9 17.88 24.55 27.51 10.47 12.87 15.75 21.07 24.92 35.18 7.56 12.86 10.86 22.12 15.59 37.91 4.06 14.7 6.22 25.11 8.82 41.99 2.11 15.64 3.16 31.39 4.27 47.12.85 12.22 2.17 24.39 3.14 36.6l1.91 37.13a161.6 161.6 0 0 0 4.62 28.5c-.4-6-.42-12.03-.43-18.04.72-15.14 2.02-30.26 1.8-45.43zm-15.91 56.59c-1.63-3.46-1.95-7.33-2.2-11.09l-1.04-38.83-1.41-29.66c-.23-18.81-1.1-37.67-4.71-56.17-3.18-17.1-9.67-33.3-16.06-49.4-5.66-15.3-10.04-31.26-18.63-45.29-13.11-21.1-19.53-28.88-42.98-38.37-3.07-1.6-7.68-3.94-9.87-8.92-1.87-5.24-3.27-10.81-3.15-16.41-1.1 4.92-.59 10.04.07 14.99 1.08 7.95 7.26 13.92 13.84 17.88 5.99 3.35 16.72 10.49 18.5 12.7 6.03 6.01 9.29 10.66 12.34 15.25 3.16 4.75 6.3 9.53 8.85 14.64 2.56 5.17 4.34 9.32 7.24 17.38 2.22 5.96 3.92 12.09 6.29 18l7.95 20.56c2.29 6.34 4.3 12.76 6.1 19.25 3.1 13.68 4.82 27.63 5.68 41.63.03 3.36.53 25.16 1.12 34.05 1.08 13.87 3.01 27.66 5.01 41.42.66 4.79 1.38 9.57 2.32 14.31.91 4.25 1.96 8.63 4.48 12.24.3.43.62.84.94 1.25-.23-.47-.47-.93-.68-1.41z" fill="#8f512b"/></g><g fill="#148c0b"><path d="M477.74 18.34c-1.89-.04-4.16 1.5-1.74 3.08.76.51 1.68.34 2.54.56 1.27.32 2.49 1.17 3.33 2.15.08.09.5.73.89 1.32l.53.8.26.35c-1.01.3-1.88.48-.98 1.56.98 1.17 2.43.25 3.45 1.31l3.48 3.48c-1.21-.99-2.07-2.51-2.99-3.92L483.3 24l-1.85-2.74-2.08-2.71c-1.41-1.69-4.21-5.13-8.49-8.78-2.15-1.8-4.68-3.68-7.6-5.19-1.46-.73-2.93-1.51-4.49-2.05-.77-.28-1.54-.62-2.32-.85l-2.35-.67c-.78-.25-1.56-.37-2.34-.53-.78-.15-1.55-.32-2.3-.43-1.51-.17-3-.43-4.4-.47-1.41-.09-2.76-.17-4-.15-1.26-.02-2.43-.01-3.49.05-4.26.16-6.89.47-6.89.47l1.55-.15c.25-.02-.6.03-4.79.49-7.7.9-11.78 1.75-17.77 2.49 6.04.04 10.26-.39 17.91-1.27l4.76-.48-1.54.14.61-.06c.4-.04.97-.1 1.72-.15-1.79.29-3.41.92-2.64 1.98.5.68 2.1.11 2.64-.2-.36.22-.75.85-.32 1.25.56.58 2.15-.02 4.27-.89 3.36-1.74 6.35-1.64 8.58-1.04-3.86.13-5.93 2.49-4.95 3.56 1.09 1.33 3.35.96 4.15.46-.37.79.44 1.31 1.1 1.58.44.16.92.27 1.48.17s1.21-.42 2.02-1.03c1.32-1.18 2.46-1.77 3.37-1.96.92-.2 1.65-.14 2.31-.19.69-.06 1.07.18 1.13.39.06.22-.18.39-.74.34-1.91.17-2.92.57-3.48 1.03-.56.47-.66.99-.66 1.39.03.8 1.25 1.69 2.37 1.49-.46.63-.68 1.21-.63 1.74s.38.98.97 1.49c.79.58 1.51.62 2.19.34.66-.25 1.29-.88 1.84-1.77.13.75.66 1.18 1.31 1.22.64.04 1.39-.23 1.95-1.04 1.66-2.35 2.4-2.07 3.65-2.22 1.26-.15 2.16.65 1.07.65-2.49.15-3.26 1.76-2.56 2.68.69.98 1.5 1.31 2.91 1.17-.35 1.3 1.35 2.73 2.62 1.24 2.47-2.18 4.5-.81 4.94-.26a2.55 2.55 0 0 0-1.97-.34c-1.05.24-1.27 1.91-.56 2.61.92.94 2.65-.05 3.79.23 1.09.28 1.99 1.08 2.76 2.01.76.92 1.45 2 2.15 2.84.14.16.7.88 1.29 1.7m-37.79-8.4c-2.43 1.68-4.07 5.79.54 5.61 1.46-.06 2.48-1.14 3.73-1.7 1.86-.83 4.11-1.01 6.08-.67.18.03 1.32.38 2.41.7l1.47.43.67.16c-.94 1.41-1.83 2.5.4 2.93 2.45.47 3.31-2.15 5.83-1.75l4.39.87 4.34.92c-1.43-.27-2.87-.73-4.29-1.25l-4.26-1.58c-6.16-2.08-12.48-4.15-19.09-5.95-3.26-.87-9.81-2.74-18.33-4.14-4.23-.75-9.02-1.22-14-1.41l-3.79-.03c-1.27.02-2.57.12-3.85.18-.64.04-1.29.05-1.93.13l-1.94.23-1.93.24-.96.12-1.01.19c-2.7.44-5.31 1.21-7.82 2.03-2.47.91-4.85 1.89-6.98 3.03-4.32 2.23-7.83 4.75-10.62 6.93-2.8 2.19-4.88 4.09-6.31 5.39l-2.2 2.05 1.84-1.73c.31-.26-.77.6-5.63 5.39-4.57 4.55-7.83 8.43-10.72 12.21-2.87 3.79-5.37 7.52-8.11 12.02 3.26-4.15 6.13-7.56 9.23-11.11 3.11-3.54 6.46-7.25 10.98-11.73l5.59-5.33c-.3.26-1.83 1.7-1.83 1.7s.98-.94 2.77-2.57c-1.99 2.15-3.44 4.54-1.42 5.11 1.28.37 2.8-1.92 3.16-2.86-.24.65-.12 1.83.82 1.9 1.25.16 2.72-2.11 4.62-5.29 2.74-5.46 7.07-8.2 10.78-9.22-2.73 1.68-4.22 3.95-4.75 5.69-.52 1.78-.08 3.12 1.05 3.41 2.64.81 5.2-1.67 5.91-2.95.16 1.37 1.67 1.47 2.75 1.29.71-.14 1.41-.38 2.1-.9.34-.27.67-.64 1-1.12.34-.46.67-1.05 1.01-1.81.98-2.68 2.28-4.22 3.48-5.15 1.22-.98 2.32-1.31 3.26-1.8 1.96-.98 2.75.21 1.06.83-1.34.72-2.31 1.37-3.01 2.01-.7.66-1.12 1.25-1.37 1.78-.48 1.05-.27 1.85-.01 2.44.59 1.19 2.85 1.52 4.39.61-.5 2.42.24 3.95 2.66 4.41 1.58.32 2.7-.06 3.51-.94.81-.87 1.3-2.18 1.47-3.85.72.98 1.82 1.23 2.8.84.98-.36 1.87-1.31 2.06-2.86.63-4.54 1.86-4.72 3.47-5.9 1.61-1.13 3.43-.76 1.95.11-3.28 2.11-3.22 4.92-1.5 5.73 1.73.87 3.17.63 4.99-.66.28 1.06 1.32 1.71 2.34 1.7 1.02.01 2.03-.6 2.26-2.15 1.54-5 5.34-4.95 6.36-4.59-.87.01-1.89.26-2.87 1.25-1.2 1.22-.09 3.65 1.45 4 2.05.45 3.48-2.42 5.2-3.06 3.34-1.26 7.34.95 10.51 1.64.31.07 1.65.39 3.16.8m-5.98 9.73c-1.34 1.2-2.28 3.08-2.22 4.53.07 1.46 1.1 2.45 3.82 1.98 1.72-.29 2.76-1.7 4.19-2.55 2.11-1.23 4.82-1.72 7.28-1.51.23.02 1.65.31 3.01.61l1.84.4.84.15c-1.02 1.74-1.99 3.1.73 3.45 2.98.41 3.87-2.74 6.99-2.36 3.65.45 7.29 1.44 10.84 2.15-3.54-.7-7.14-2.34-10.68-3.38-7.73-2.29-15.76-4.18-24.17-5.29a134.13 134.13 0 0 0-9.16-.91c-1.01-.05-1.98-.14-3.2-.16l-1.81-.04-1.88.03a62.68 62.68 0 0 0-8.04.71c-5.59.81-11.5 2.49-17.19 4.88a83.42 83.42 0 0 0-8.33 4.09 92.38 92.38 0 0 0-3.97 2.37c-1.32.88-2.7 1.78-3.97 2.74-5.13 3.85-9.53 8.26-12.99 12.65-3.49 4.38-6.17 8.68-8.22 12.39-2.06 3.72-3.48 6.86-4.43 9.06s-1.42 3.45-1.42 3.45l.5-1.28.68-1.62c.1-.23-.02.04-.58 1.35l-1.12 2.85c-.25.63-.5 1.35-.79 2.16l-.9 2.53c-2.21 6.19-4.52 11.69-6.15 17.41-.82 2.87-1.52 5.81-1.98 9.02-.46 3.2-.7 6.69-.38 10.56.06-3.88.62-7.28 1.35-10.37.74-3.1 1.65-5.91 2.64-8.67 1.97-5.5 4.44-10.85 6.72-17.17l.9-2.52.78-2.12 1.1-2.79.56-1.33c-.1.22-.4.93-.68 1.58l-.5 1.26.44-1.13 1.34-3.16c-1.15 3.39-1.53 6.82.94 6.36.8-.14 1.3-1.03 1.61-2.03.33-1 .45-2.12.41-2.72.05.83.76 2.06 1.8 1.67 1.42-.45 1.94-3.63 2.53-8.01a22.9 22.9 0 0 1 2.56-9.18c1.37-2.48 3.05-4.41 4.8-5.84-2.06 3.11-2.68 6.21-2.41 8.38.28 2.18 1.35 3.44 2.73 3.23 3.22-.38 4.96-4.24 5.04-6.04.81 1.39 2.58.82 3.64.04 1.42-1.04 2.65-2.34 2.53-6.25-.31-3.37.24-5.68 1.02-7.31.75-1.69 1.79-2.63 2.54-3.69 1.6-2.06 3.07-1.16 1.57.34-1.08 1.44-1.75 2.74-2.17 3.75-.39 1.07-.52 1.93-.5 2.62.04 1.38.69 2.12 1.27 2.61.62.48 1.6.5 2.53.17.94-.32 1.88-.92 2.4-1.84.79 2.85 2.24 4.08 5.14 3.39 1.81-.51 2.8-1.46 3.22-2.79.42-1.3.25-3-.41-4.88 2.48 1.37 5.18-1 4.18-4.53-1.48-5.25-.19-6.02 1.09-8.05 1.32-2.01 3.61-2.43 2.28-.79-1.43 1.91-1.74 3.65-1.45 4.91.3 1.26 1.16 2.01 2.28 2.08 1.13.08 2.05-.07 2.88-.51.83-.47 1.57-1.18 2.34-2.29.72 1.05 2.1 1.44 3.23 1.07 1.13-.32 2.07-1.38 1.84-3.22.08-3.09 1.29-4.94 2.72-5.96.71-.5 1.46-.8 2.12-.96.66-.15 1.23-.16 1.59-.13-1.12.19-2.36.79-3.27 2.19-.57.86-.31 1.93.3 2.77s1.57 1.45 2.53 1.48c1.28.01 2.17-.86 2.99-1.89s1.59-2.23 2.56-2.76c3.78-2.12 9.05-.16 12.99.26.4.03 2.05.27 3.95.57m-2.69 30.35c.03 1.76.88 3.56 2.01 4.34.57.39 1.2.53 1.84.29.66-.23 1.25-.91 1.96-2.02.87-1.43.5-3.11.91-4.67.55-2.34 2.23-4.64 4.27-6.19l2.77-1.61 1.75-.9.78-.44c.23 1.95.27 3.47 2.66 2.11 2.64-1.47 1.65-4.34 4.65-5.82 3.55-1.59 7.49-2.49 11.29-3.31-3.77.81-7.97 1.15-11.79 2.25-8.3 2.47-16.28 6.81-22.81 12.89-1.62 1.48-3.96 3.83-6.51 7.03-2.57 3.18-5.21 7.29-7.51 12.06-2.3 4.73-4.11 9.89-5.58 15.26a117.65 117.65 0 0 0-3.22 16.42c-.17 1.38-.32 2.75-.43 4.12-.13 1.38-.21 2.62-.3 3.93a133.84 133.84 0 0 0-.3 7.67c-.05 5.04.26 9.88 1.03 14.17.16 1.01.46 2.27.72 3.32.3 1.04.58 2.04.9 2.9.6 1.77 1.22 3.16 1.71 4.26 1 2.2 1.57 3.28 1.57 3.28l-.58-1.17-.74-1.55c-.1-.23.02.05.62 1.3.58 1.23 1.74 3.44 3.32 6.49 1.41 2.78 2.33 4.9 2.84 6.66.55 1.72.89 3.97 1.36 6.6.23 1.31.5 2.74.87 4.25.41 1.71.93 3.23 1.41 4.54.99 2.61 1.72 4.4 1.98 5.62.11-1.25-.36-3.24-1.08-5.91-.35-1.34-.74-2.86-1.02-4.52-.24-1.49-.41-2.9-.55-4.21-.28-2.63-.48-4.95-.99-6.91-.47-1.98-1.42-4.28-2.85-7.12l-3.28-6.46-.6-1.26.71 1.51.57 1.15-.51-1.02c-.33-.69-.82-1.7-1.42-3.08 1.72 3.21 3.85 5.46 5.09 3.48.8-1.27-1.19-3.68-2.07-4.5.62.53 1.93.83 2.32-.17.62-1.33-1.39-3.6-3.7-7.46-2.02-2.94-3.02-5.89-3.44-8.52-.41-2.64-.24-4.99.21-7.01.3 3.39 1.59 6.07 3.03 7.55 1.45 1.49 2.98 1.81 3.9.87 1.14-1.07 1.44-2.56 1.36-3.99-.07-1.43-.55-2.79-1.03-3.47 1.42.57 2.37-.92 2.7-2.17.42-1.66.52-3.52-2.05-6.24-4.82-4.36-4.62-7.33-5.11-9.58-.46-2.36 1.09-2.85 1.22-.87.73 3.28 1.74 4.99 2.7 5.88.97.89 1.89.96 2.61.88 1.46-.21 2.62-2.71 2.07-4.67 2.48 1.31 4.3.98 5.63-1.64 1.53-3.37-.27-5.62-3.8-6.92 2.48-1.06 2.35-4.6-.91-5.86-4.79-1.89-4.65-3.27-5.49-5.35-.85-2.09.12-4.01.63-2.14 1.42 4.21 4.54 4.85 5.82 3.2 1.4-1.64 1.57-3.22.68-5.58 2.44 0 4.09-3.51 1.02-5.1-2.38-1.7-3.19-3.62-3.27-5.28-.02-1.62.67-2.95 1.08-3.48-.4.99-.59 2.27.01 3.71.77 1.76 3.85 1.51 4.83.01.67-1 .49-2.13.12-3.36-.36-1.22-.86-2.49-.69-3.56.16-1.03.55-2.05 1.14-3 .61-.92 1.39-1.8 2.21-2.64.87-.8 1.8-1.55 2.7-2.28.91-.71 1.83-1.36 2.6-2.05.29-.3 1.69-1.31 3.32-2.47m3.07 17.46c.56 1.38 1.8 2.59 2.96 2.88 1.16.28 2.17-.29 2.52-2.54.24-1.42-.56-2.62-.78-3.98-.33-2.01.16-4.32 1.19-6.22.1-.18.82-1.22 1.58-2.2l1.04-1.34.46-.62c.87 1.44 1.45 2.64 2.85.69.77-1.05.8-2.11.75-3.1-.02-1-.06-2.04 1.05-3.23.67-.69 1.44-1.4 2.39-2.08s2.05-1.32 3.26-1.83c2.45-1.05 5.13-1.39 7.38-1.39l-3.64.22c-1.29.17-2.64.46-3.93.91-2.59.9-4.73 2.29-6.23 3.52-3.03 2.48-5.74 5.44-7.9 8.41-2.2 2.99-4.06 6.09-5.7 9.41-.8 1.64-1.97 4.11-3.1 7.57-.57 1.76-1.08 3.8-1.43 5.89-.36 2.1-.58 4.28-.69 6.48-.23 4.4-.05 8.88.03 13.07l.03 13.09.01 12.64c.01 4.04.1 7.85.28 11.13a122.9 122.9 0 0 0 .7 7.95l.43 3.01s-.09-.53-.17-1.11l-.2-1.41c-.03-.2 0 .04.16 1.18.16 1.15.47 3.22 1.22 6.69.35 1.6.76 3.1 1.17 4.53.43 1.43.86 2.79 1.29 3.98.86 2.43 1.68 4.52 2.42 6.46l1.06 2.82c.22.51.45 1.36.78 2.54.34 1.18.72 2.59 1.5 4.36.38.87.92 1.87 1.62 2.89.74 1.04 1.71 2.11 2.94 3.04-1.18-.99-2.08-2.1-2.75-3.17a15.97 15.97 0 0 1-1.4-2.93c-.64-1.78-.88-3.19-1.11-4.38-.21-1.18-.34-2.07-.49-2.69-.24-.96-.52-1.93-.81-2.94l-2.07-6.57c-.39-1.2-.77-2.53-1.17-3.93a87.46 87.46 0 0 1-1.1-4.44c-.73-3.39-1.03-5.42-1.18-6.54l-.16-1.16c.03.19.11.81.19 1.38.07.57.16 1.09.16 1.09s-.23-1.37-.51-3.74c.57 2.84 1.74 5.43 3.28 4.07.98-.85 0-3.35-.54-4.18.37.56 1.38 1.13 1.95.42.84-.9-.15-3.36-1.58-6.61-2.73-5.17-2.82-9.58-2.14-12.92.64 5.62 4.25 8.8 5.9 7.21 2.05-1.75 1.24-5.33.38-6.52 1.23.49 2.04-.85 2.28-1.97.32-1.48.32-3.19-2.07-5.39-4.42-3.46-4.6-5.81-5.32-7.62-.72-1.86.52-2.49.92-.88 2.14 5.22 4.11 5.43 5.33 5.15 1.24-.31 1.99-2.71 1.24-4.39 2.27.82 3.82.31 4.55-2.37.76-3.45-1.23-5.19-4.45-5.52.95-.72 1.17-1.94.76-2.95-.4-1.02-1.41-1.83-2.92-1.9-4.43-.26-4.7-1.38-5.99-2.77-1.29-1.38-1.14-3.16-.14-1.85 2.42 2.86 5.12 2.55 5.68.79.62-1.78.26-3.13-1.22-4.72 1.93-.8 2.1-4.18-.89-4.4-2.46-.55-3.78-1.79-4.35-3.11-.59-1.31-.45-2.65-.26-3.23a3.94 3.94 0 0 0 1.2 3.04c1.23 1.16 3.52-.1 3.86-1.61.46-2.01-2.16-3.59-2.58-5.48-.4-1.8.16-3.71 1-5.5.84-1.8 1.98-3.46 2.75-4.99.15-.3.84-1.57 1.73-2.99"/><path d="M570.91 4.94c-1.6 1.98-1.88 5.71 1.83 4.42 1.18-.38 1.76-1.51 2.66-2.27 1.34-1.11 3.18-1.77 4.92-1.92.16-.01 1.19.02 2.18.07l1.34.05h.6c-.5 1.36-1.01 2.43.94 2.34 2.14-.09 2.36-2.42 4.59-2.56 2.6-.16 5.27.05 7.83.05-2.56 0-5.28-.66-7.88-.94-5.68-.6-11.5-.95-17.47-.82-2.95.09-8.87.23-16.21 1.46-7.28 1.21-15.57 3.56-23.16 6.6a128.07 128.07 0 0 0-10.73 4.85 115.42 115.42 0 0 0-4.67 2.51 60.24 60.24 0 0 0-2.22 1.3c-.74.45-1.42.92-2.08 1.35-2.6 1.8-4.57 3.48-5.88 4.68-1.31 1.21-2.01 1.92-2.01 1.92s.34-.35.73-.72l.94-.9c.13-.13-.03.02-.79.75-.77.73-2.13 2.07-4.19 4.45a63.28 63.28 0 0 0-4.7 6.24c-.65.98-1.25 1.94-1.8 2.88l-.42.71-.48.87c-.29.55-.56 1.1-.79 1.6-.94 2.03-1.57 3.69-2.2 5.1-.61 1.38-1.24 2.43-1.64 2.92.58-.28 1.46-1.27 2.27-2.58.84-1.35 1.63-2.97 2.67-4.88l.85-1.5.5-.8.45-.67c.59-.9 1.22-1.81 1.88-2.75 1.33-1.88 2.84-3.88 4.69-6.03 2.01-2.32 3.34-3.62 4.09-4.33l.77-.73-.92.87c-.38.36-.71.7-.71.7s.86-.9 2.5-2.35c-1.84 1.92-3.08 4.12-1.31 4.5 1.12.25 2.4-1.76 2.76-2.57-.23.56-.14 1.57.67 1.62 1.08.14 2.33-1.81 4.15-4.45a16.22 16.22 0 0 1 4.64-5.01c1.59-1.12 3.19-1.81 4.68-2.21-2.13 1.37-3.45 3.13-3.97 4.59s-.27 2.62.67 2.94c2.2.87 4.6-1.21 5.2-2.33.11 1.16 1.46 1.27 2.41 1.03 1.27-.3 2.55-.91 3.44-3.59 1.21-4.76 3.2-5.7 4.5-6.85 1.37-1.17 2.26-.34 1.02.49-3.73 3.39-3.14 5.1-2.53 5.99.66.89 2.79.76 3.89-.35.04 2.11.94 3.23 3.21 3.09 2.87-.29 3.69-2.34 3.17-5.15 1.66 1.21 3.97-.3 3.48-2.9-.68-3.83.25-4.29 1.21-5.67.97-1.36 2.53-1.57 1.59-.46-2.04 2.61-1.24 4.86.36 5.02 1.63.19 2.74-.33 3.83-1.92 1.04 1.54 4.04.97 3.57-1.62-.12-4.46 3-5.42 3.94-5.41-.71.22-1.48.74-2.01 1.78-.64 1.3.9 2.97 2.25 2.83 1.78-.18 2.19-2.85 3.44-3.82 2.42-1.87 6.3-1.06 9.11-1.23.28-.02 1.46-.05 2.83-.06"/><path d="M591.81 26.25c-2.08 2.02-2.96 6.25 1.45 5.31 1.39-.29 2.2-1.5 3.33-2.23 1.67-1.1 3.83-1.61 5.83-1.57.19.01 1.35.18 2.47.34l1.52.23.69.07c-.73 1.49-1.46 2.65.79 2.79 2.46.16 3.01-2.47 5.59-2.34 3.02.16 6.09.77 9.08 1.18-2.98-.4-6.05-1.54-9.02-2.19-6.49-1.42-13.08-2.48-19.79-3.15-3.31-.32-9.96-.94-18.16-1.05-4.18-.06-8.82.09-13.47.52-4.66.42-9.39 1.08-13.94 1.89-9.1 1.62-17.48 3.74-23.58 5.31l-4.31 1.16c-1.3.37-2.42.71-3.34 1.01l-2.87.95 2.41-.81c.19-.06-.04 0-1.13.37s-3.06 1.03-6.32 2.35a74.32 74.32 0 0 0-8.06 3.83 62.76 62.76 0 0 0-3.45 2.04c-.55.36-1.09.69-1.62 1.07l-.79.55-.41.29-.49.36c-2.62 1.96-4.51 4.22-5.9 5.95l-.97 1.22c.07-.02-.18.27-.73.81-.53.56-1.24 1.23-2.16 2.55a11.49 11.49 0 0 0-1.34 2.62 10.08 10.08 0 0 0-.56 4.02c-.06-1.46.23-2.87.66-3.98.42-1.06.96-1.93 1.41-2.53.96-1.26 1.7-1.86 2.27-2.36.58-.49.89-.73.9-.7l1.11-1.1c1.57-1.58 3.55-3.63 6.11-5.35.33-.22.65-.43.89-.57l.8-.49c.53-.33 1.08-.64 1.64-.96 1.11-.63 2.25-1.25 3.45-1.86a99.53 99.53 0 0 1 7.95-3.62c3.2-1.29 5.13-1.93 6.21-2.29l1.11-.37c-.38.11-2.37.79-2.37.79s1.3-.46 3.58-1.18c-2.68 1.09-5.01 2.69-3.41 3.99 1.01.82 3.31-.59 4.02-1.28-.48.48-.86 1.57-.06 2.02 1.03.65 3.31-.77 6.24-2.8 4.46-3.67 8.68-4.79 12.16-4.87-5.4 1.91-7.68 6.13-5.78 7.41 2.19 1.64 5.54.02 6.5-1.08-.2 1.32 1.29 1.82 2.44 1.81 1.52-.02 3.15-.37 4.82-3.16 2.53-5.06 4.94-5.65 6.66-6.66 1.79-1.01 2.62.14 1.04.78-4.94 2.98-4.71 5.03-4.23 6.18.53 1.16 2.98 1.5 4.49.49-.44 2.4.32 3.84 2.95 4.2 3.34.3 4.72-1.85 4.74-5.12 1.62 1.71 4.56.53 4.56-2.53.04-4.48 1.2-4.78 2.58-6.14 1.39-1.33 3.19-1.22 1.89-.18-1.44 1.25-2.04 2.56-2.07 3.62s.51 1.85 1.41 2.12c1.8.57 3.16.2 4.73-1.34.84 1.94 4.4 1.93 4.37-1.12.72-5.06 4.33-5.59 5.37-5.43-.83.15-1.77.59-2.54 1.68-.95 1.36.48 3.54 2.03 3.61 2.05.11 2.94-2.89 4.49-3.79 3-1.76 7.23-.3 10.44-.13.32.01 1.66.14 3.22.29"/><path d="M621.54 68.47c-3.21 1.76-5.77 6.62-.06 6.98 1.8.13 3.2-1.06 4.84-1.58 2.44-.76 5.24-.65 7.78.18.23.08 1.65.74 2.98 1.39l1.8.88c.48.24.81.38.82.36-1.48 1.51-2.81 2.63-.13 3.69 2.92 1.18 4.64-1.77 7.69-.59 3.55 1.38 6.91 3.27 10.24 4.74-3.31-1.46-6.47-3.98-9.75-5.94-3.59-2.14-7.35-4.25-11.34-6.2-.99-.49-2.02-.97-3.03-1.42l-2.97-1.31a201.63 201.63 0 0 0-5.96-2.44c-3.93-1.57-11.76-4.41-21.03-7.79-9.38-3.43-20.71-7.51-32.05-10.64-11.35-3.18-22.48-5.25-31.02-6.15-2.13-.23-4.08-.39-5.82-.5-1.83-.11-3.55-.16-4.86-.14-2.67.02-4.11.13-4.11.13l1.5-.08 1.94-.06c.28 0-.06-.02-1.62.04-1.55.06-4.39.19-8.73.72-3.99.48-7.32 1.02-10.25 1.45-2.86.43-5.54.76-8.3 1.12-5.51.73-11.14 1.43-18.09 3.3 7.11-1.1 12.7-1.18 18.26-1.51 2.78-.16 5.51-.33 8.43-.66l10.25-1.28c4.28-.51 7.03-.63 8.53-.69l1.57-.04c-.27-.01-1.1.02-1.88.04l-1.46.07 1.31-.07c.86-.03 2.12-.07 3.76-.06-3.97.28-7.41 1.49-5.86 3.61.97 1.35 4.34.43 5.53-.11-.8.39-1.7 1.58-.87 2.42 1.02 1.17 4.39.39 8.79-.75 7.14-2.39 12.87-1.46 16.97.26-3.67-.32-6.76.5-8.67 1.7-1.92 1.21-2.67 2.77-1.88 3.99 1.75 2.96 6.38 2.78 8.08 2.01-.91 1.43.54 2.76 1.86 3.36 1.74.78 3.77 1.23 7.2-1.07 5.65-4.42 8.76-3.78 11.26-3.99 2.6-.19 2.91 1.58.76 1.45-7.29.72-8.14 3.19-8.22 4.76-.03 1.63 2.59 3.34 4.88 3.03-1.81 2.51-1.74 4.56 1.12 6.43 3.74 2.18 6.57.45 8.31-3.33.99 2.87 5.16 3 6.67-.56 2.3-5.2 3.78-5.01 6.01-5.94s4.22 0 2.25.65c-4.46 1.66-5.35 5.01-3.47 6.48 1.87 1.54 3.72 1.72 6.26.56.16 2.7 4.53 4.18 5.69.47 2.9-5.8 7.29-5.11 8.48-4.55-1.04-.12-2.31.06-3.64 1.1-1.66 1.29-.78 4.47 1.07 5.13 2.45.87 4.6-2.44 6.78-3.01 4.22-1.1 8.85 2.11 12.76 3.44.39.13 2 .74 3.88 1.51m-28.29 42.49c-3.11 1.3-6.33 5.54-.98 6.56 1.7.32 3.19-.63 4.95-.79 1.3-.11 2.77.11 4.26.71 1.55.64 2.91 1.57 3.89 2.4.19.16 1.2 1.26 1.89 1.95l.85.78c.1.09.18.13.24.18l.16.09c-.44.27-.72.62-1.03.9-.3.29-.55.55-.71.8-.15.26-.25.47-.11.75.16.3.5.61 1.08.97 2.53 1.57 4.61-.95 7.31.68 3.17 1.91 6.19 4.42 9.22 6.82-3.01-2.38-5.74-5.46-8.57-7.87l-4.63-3.85-1.15-.93-.14-.12-.05-.05-.09-.08-.23-.22a48.23 48.23 0 0 1-1.42-1.51c-.62-.67-1.38-1.52-2.35-2.47-.48-.47-1.03-.98-1.63-1.48-.58-.48-1.16-.94-1.73-1.35-2.31-1.68-4.48-2.83-6.23-3.77-1.67-.89-3.97-2.16-7.03-3.97l-11.16-6.53-1.69-.93-1.93-1.01-3.5-1.7c-1.02-.5-1.91-.96-2.62-1.39-.37-.22-.68-.43-.99-.64l-.47-.35-.69-.54a95.17 95.17 0 0 1-5.51-4.72l-6.04-5.66c-8.65-7.7-17.41-13.75-23.71-18.11l-7.52-5.13-1.42-.94c-.44-.29-.81-.53-1.11-.7l-.92-.55 1.32.78 1.66 1.07c.23.15-.04-.03-1.39-.91-1.35-.83-3.8-2.34-7.91-4.21-6.65-2.94-11.99-4.4-16.88-5.63l-3.6-.84a69.29 69.29 0 0 0-3.87-.76l-7.01-1.09c-.04.01 0 .05-.23 0-.21-.04-.59-.15-1.19-.3-.59-.14-1.42-.34-2.5-.45a13.55 13.55 0 0 0-3.76.15 13.1 13.1 0 0 1 3.75-.02c1.07.15 1.87.39 2.45.57.58.19.94.33 1.14.42.22.09.18.1.23.13 2.11.64 4.44 1.21 6.86 1.84l3.74 1.04 3.51 1.08c4.77 1.51 9.97 3.11 16.42 5.97 3.98 1.82 6.32 3.27 7.61 4.07l1.33.86c-.22-.15-.93-.61-1.58-1.04l-1.26-.76 1.13.68c.71.45 1.9 1.22 2.94 1.94-.36-.2-.72-.39-1.08-.57a22.78 22.78 0 0 0-1.24-.57c-.81-.36-1.58-.56-2.22-.65-1.29-.17-2.1.26-2.03 1.52.05.8.87 1.48 1.85 1.98a10.69 10.69 0 0 0 1.49.65c.45.15.85.24 1.14.28-.78-.08-2.11.38-1.95 1.47.13 1.48 3.17 2.55 7.31 3.56 6.92 1.16 11.33 4.18 14.17 7.37-6.06-3.56-11.76-2.26-11.42.49.23 3.3 4.34 5.1 6.11 5.13-1.38.86-.67 2.6.22 3.67 1.19 1.39 2.75 2.61 6.65 2.03 6.69-1.5 9.12.43 11.37 1.35 2.33 1.01 1.82 2.62.03 1.58-3.28-1.33-5.37-1.47-6.73-1.18-1.35.3-1.97 1.06-2.34 1.73-.7 1.39.79 3.92 2.83 4.62-1.31.68-2.16 1.47-2.51 2.43-.17.48-.22 1-.12 1.57.05.29.13.58.25.89.15.34.35.72.6 1.11 2.72 3.87 6.16 3.52 9.03.79-.03 1.49.97 2.67 2.29 3.11.62.19 1.5.33 2.24.12.76-.19 1.45-.65 2.01-1.39 3.38-4.25 4.49-3.9 6.59-4.57 2.04-.7 3.85.37 1.94.8-4.21 1.18-5.66 4.12-3.96 5.8 1.68 1.69 3.33 1.96 5.87 1.22-.22 2.56 3.57 4.61 5.3 1.33 3.71-4.97 7.8-3.5 8.78-2.78-.94-.29-2.17-.35-3.61.39-1.79.92-1.52 4.06.1 5.01 2.14 1.25 4.73-1.49 6.83-1.71 2.02-.2 3.91.56 5.72 1.52 1.84.97 4.01 2.39 6.15 3.72a21.58 21.58 0 0 1 1.51 1.04c.75.55 1.74 1.39 2.55 2.17"/><path d="M484.22 80.57c1.06 1.21 2.72 2.03 4 1.95 1.3-.09 2.1-1.01 1.74-3.43-.26-1.53-1.46-2.49-2.15-3.82-.53-.98-.83-2.1-.97-3.27-.16-1.17-.09-2.38.12-3.53.03-.22.43-1.53.89-2.79l.6-1.7.27-.78c1.35 1.17 2.39 2.21 3.14-.23.41-1.35.07-2.32-.33-3.37-.4-1.04-.73-2.12-.12-3.57 1.45-3.39 3.72-6.6 6.14-9.59-2.41 2.96-5.2 5.95-7.16 9.18-4.28 7.05-6.68 14.82-7.77 22.64-.3 1.93-.58 4.85-.72 8.47l-.03 2.85.09 3.09.23 3.3.34 3.25c.99 8.85 3.08 19.21 6.23 28.84 3.17 9.76 7.17 18.18 10.19 24.4 3.05 6.18 5.17 10.03 5.17 10.03l-1.21-2.27c-.18-.37.41.88 3.8 7.01l4.2 7.39 3.72 6.56c1.33 2.2 2.78 4.43 4.64 6.73.48.58.95 1.15 1.5 1.73.58.64.94.99 1.5 1.56.56.55 1.17 1.15 2.01 1.86a17.77 17.77 0 0 0 1.53 1.15c.64.42 1.38.89 2.64 1.38-1.25-.52-1.96-1.03-2.57-1.48s-1.05-.85-1.44-1.23c-.78-.75-1.33-1.4-1.83-1.99-.51-.61-.81-1.01-1.33-1.68-.49-.61-.9-1.22-1.32-1.82-1.62-2.4-2.86-4.68-4.02-6.94l-3.36-6.72c-1.07-2.09-2.55-4.69-4.08-7.48l-3.77-6.98 1.19 2.26-1.81-3.42c1.61 2.5 3.59 4.61 4.73 2.75.73-1.19-1.15-3.32-2.01-3.91.58.4 1.81.59 2.12-.33.51-1.21-1.41-3.31-4.18-5.89-4.85-3.91-6.89-8.21-7.64-11.89 3.06 5.39 7.99 6.91 8.94 4.65 1.26-2.62-1.06-5.8-2.41-6.6 1.43-.04 1.67-1.7 1.44-2.9-.29-1.6-.95-3.2-4.17-4.48-5.75-1.83-6.76-4.37-8.06-6.05-1.33-1.78-.22-2.81.68-1.21 3.86 4.86 6.02 4.26 7.15 3.59 1.15-.74 1.15-3.35-.11-4.79 2.6.12 4.01-.88 4.06-3.67-.11-3.53-2.57-4.72-6.04-4.32 1.63-1.94-.03-4.91-3.26-4.52-4.76.52-5.25-.66-6.85-1.95-1.61-1.29-1.71-3.2-.44-1.97 3.04 2.69 5.88 1.9 6.18-.05.38-1.99-.21-3.39-2.06-4.85 1.95-1.17 1.45-4.92-1.77-4.49-2.72-.06-4.34-1.08-5.27-2.28-.9-1.19-1.08-2.52-1.05-3.12.23.94.78 1.97 2 2.73 1.54.91 3.73-.89 3.67-2.55-.01-2.21-3.27-3.04-4.26-4.77-.98-1.66-1.05-3.75-.79-5.85s.86-4.2 1.13-6.04c.08-.36.33-1.9.79-3.66"/></g><g fill-rule="evenodd"><path d="M507.04 327.62c6.43-10.07 13.37-19.81 20.8-29.17-.32 11.77.18 23.57 1.85 35.31-.32.81-.18 1.79.36 2.48l23.66.16c6.57.04 13.33.13 19.41 2.61-12.26 12.24-29.86 18.94-47.82 18.28 11.94 9.3 17.39 26.16 13.14 40.68-4.14-5-10.95-7.27-14.89-12.43-6.73-8.82-3.64-23.96-12.94-30.09-4.28 2.96-4.95 8.98-8.02 13.17-3.01 4.11-8.05 6.12-12.81 7.94-7.94 3.02-16.14 6.08-24.62 5.8l31.78-32.13c-12.73-6.42-22.62-18.26-26.67-31.93 5.88.07 11.04 3.67 16.57 5.66 8.29 2.98 17.84 2.21 25.54-2.06l-1.38 4.45c.87-3.23 2.3-6.31-3.96 1.27z" fill="#cc7cb5"/><path d="M241 101.9c1.9 2.4 2.9 5.7 4.9 12.2l43.3 142.3c-16.3-8.4-33.7-14.4-51.8-17.5l-28.2-95.3c-.6-1.9-2.6-3.1-4.6-2.5-1.2.4-2.1 1.3-2.5 2.5l-27.9 95.2c-18.1 3.2-35.7 9.1-52 17.6l43.7-142.3c2-6.5 3-9.8 4.9-12.2 1.7-2.1 3.9-3.8 6.5-4.8 2.9-1.1 6.3-1.1 13.1-1.1h31.1c6.8 0 10.2 0 13.1 1.1 2.5 1 4.7 2.7 6.4 4.8z" fill="#fff"/><use xlink:href="#C" fill="#ff5d01"/></g><linearGradient id="A" gradientUnits="userSpaceOnUse" x1="242.144" y1="196.196" x2="199.864" y2="284.686"><stop offset="0" stop-color="#ff1639"/><stop offset="1" stop-color="#ff1639" stop-opacity="0"/></linearGradient><use xlink:href="#C" fill-rule="evenodd" fill="url(#A)"/><defs ><path id="C" d="M246.2 263.1c-7.1 6.1-21.4 10.3-37.8 10.3-20.2 0-37-6.3-41.5-14.7-1.6 4.8-2 10.4-2 13.9 0 0-1.1 17.4 11 29.4 0-6.3 5.1-11.4 11.3-11.4 10.7 0 10.7 9.4 10.7 17v.7c0 11.2 6.7 21.3 17.1 25.6-1.5-3.2-2.3-6.7-2.3-10.2 0-11 6.5-15.1 14-19.9 6-3.8 12.6-8 17.2-16.4 2.5-4.6 3.7-9.6 3.7-14.8.1-3.3-.5-6.5-1.4-9.5h0z"/></defs></svg>