<svg xmlns="http://www.w3.org/2000/svg" xmlns:xlink="http://www.w3.org/1999/xlink" version="1.1" id="Layer_1" x="0px" y="0px" style="enable-background:new 0 0 1920 1080;" xml:space="preserve" viewBox="222.1 278.25 1593.13 463.34">
<style type="text/css">
	.st0{fill:#FFFFFF;stroke:#000000;stroke-miterlimit:10;stroke-dasharray:0,0,0,0,0,0;}
	.st1{fill:#00A99D;}
	.st2{fill:#FF00FF;}
</style>
<path d="M1598.85,729.13c-28.39-3.52-60.8-4.95-84.52-8.76c-30.45-4.76-59.56-15.03-88.59-25.03c-26.51-8.96-56.64-19.43-78.26-28.7  c-20.2-8.52-39.1-19.82-56.78-32.73c-18.37-12.87-36.1-26.6-54-40.1c-8.21-6.07-21.84-17.89-31.81-28.31  c-9.45-9.84-18.07-20.45-26.57-31.11c-8.92-11.11-17.72-22.32-26.7-33.39c-14.77-17.28-29.93-34.21-45.44-50.83  c-16.94-18.11-32.42-37.9-52.14-53.15c-13.29-10.43-29.09-16.79-45.1-21.77c-14.06-4.8-28.5-9.19-43.5-9.14  c-24.61,0.09-48.27,9.24-69.56,20.99c-19.64,10.99-37.8,24.57-53.92,40.27c-10.88,10.63-20.82,22.16-30.99,33.45  c-5.8,7.2-11.52,14.48-17.22,21.75c-21.08,27.58-42.67,56.49-67.56,84.58c-7.61,8.97-16.07,17.15-24.24,25.6  c-5.98,5.31-11.94,10.64-17.91,15.95c0.32-0.25,0.64-0.49,0.96-0.74c-15.35,12.05-31.21,23.42-47.26,34.52  c-4.33,3.02-8.67,6.04-13,9.07c-6.61,3.93-13.23,7.86-19.84,11.79c-6.74,3.5-13.56,6.83-20.33,10.27  c-24.17,11.49-43.1,21.69-68.67,28.09c-17.61,4.48-31.42,4.66-50.34,6.89c-17.73,1.75-35.08,4.83-52.75,6.03  c17.83,1.98,35.78,1.26,53.67,0.79c19.41-0.83,38.96-2.22,57.78-7.35c22.9-6.12,44.14-16.86,65.46-26.98  c6.48-3.22,12.96-6.43,19.44-9.66c7.02-4.19,14.18-8.17,21.13-12.48c15.7-10.9,31.6-21.54,46.82-33.11  c4.54-3.48,9.1-6.93,13.64-10.42c6.04-5.39,12.13-10.71,18.13-16.13c16.69-16.55,32.14-34.24,46.91-52.51  c21.53-26.86,40.5-52.65,60.31-77.59c11.97-13.63,23.97-27.33,37.29-39.68c14.22-13.14,26.06-21.69,43.57-32.08  c23.64-13.55,49.91-23.88,76.57-21.41c12.25,0.95,32.96,7.99,48.4,13.64c23.75,8.48,42.14,27.22,61.58,48.99  c14.48,16.32,29.42,32.21,43.85,48.57c14.68,16.5,28.26,33.9,41.87,51.28c15.28,19.91,31.52,39.22,50.83,55.37  c17.94,14.56,31.63,24.7,50.79,39.1c16.93,12.22,33.79,24.7,52.38,34.32c30,15.24,62.09,25.82,93.83,36.78  c21.83,7.32,43.47,15.37,65.82,21.03c20.83,5.19,42.14,8.77,63.61,9.71c18.15,0.6,36.29-1.25,54.31-3.34  c2.82-0.34,5.65-0.69,8.47-1.06C1605.8,729.97,1602.32,729.54,1598.85,729.13z"/>
<path class="st1" d="M1419.31,734.75c-19.79-7.06-40.41-11.59-60.95-15.84c-17.49-3.64-35.29-6.34-52.29-11.97  c-12.37-4.12-29.29-13.73-42.97-24.16c-6.97-4.93-13.37-9.75-20.95-18.18c-10.6-12.02-20.99-24.24-31.6-36.27  c-6.15-7.22-12.81-14.02-18.8-21.37c-6.72-8.44-9.59-12.47-16.73-21.89c-10.04-12.47-17.49-21.13-25.15-32.13  c-9.96-14.8-18.07-30.76-25.92-46.75c-5.64-11.63-11.48-23.17-16.7-35c-2.12-5.02-2.85-6.33-5.21-13.31  c-2.51-7.93-4.53-16.04-7.59-23.78c-5.81-13.8-12.65-26.29-16.83-37.42c-5.06-11.94-9.71-24.14-16.02-35.49  c-4.34-7.69-9.69-14.72-14.94-21.8c-5.14-7.09-10.3-14.16-15.83-20.95c-7.88-9.14-15.77-18.28-23.48-27.57  c-4.59-5.22-10.55-9.48-17.48-10.78c-9.56-1.92-19.46-2.13-29.18-1.56c-14.63,0.56-26.03,8.64-36.33,18.34  c-8.55,8.06-16.62,16.63-23.42,26.22c-9.18,12.49-18.09,25.39-24.06,39.77c-4,9.34-6.57,19.2-9.77,28.82  c-3.72,11.57-7.96,22.98-12.6,34.21c-5.75,13.69-13.6,32.78-21.98,49.67c-6.39,13.04-13.57,25.66-20.43,38.46  c-10.32,18.43-18.86,37.77-29.03,56.27c-5.62,10.67-18.9,28.08-22.89,33.21c-11.38,14.78-23.25,29.17-36.27,42.54  c-17.22,17.76-31.78,33.59-51.47,44.44c-11.75,6.55-18.3,8.79-30.39,13.91c-11.06,4.81-29.09,11.02-36.27,11.86  c-20.91,3.01-41.98-0.52-62.98,0.23c22.74,4.06,45.68,11.78,69,8.09c10.68-2.05,20.92-5.98,31.03-9.89  c19.88-7.65,40.06-15.69,56.37-29.78c11.73-9.5,22.07-20.52,32.6-31.31c17.82-18.22,33.36-38.44,48.68-58.77  c15.67-21.59,25.55-46.54,38.3-69.83c7.66-14.37,15.75-28.51,22.94-43.12c7.39-14.74,13.52-30.07,19.9-45.26  c6.14-15.03,11.7-30.3,16.27-45.89c4.08-13.45,6.81-25.51,12.45-35.61c5.11-9.6,11.3-18.58,17.61-27.42  c5.67-8.26,10.51-13.36,18.51-21.59c10.4-10.67,21.6-19.01,32.6-19.61c6.46-0.67,12.96-0.52,19.43-0.13c5.35,0.57,5.64,0.2,10,1.32  c3.96,1.05,4.74,1.21,8.5,3.94c5.43,4.33,9.39,10.16,13.87,15.41c4.62,5.36,9.23,10.73,13.79,16.15c2.91,3.39,10.2,13.57,14.7,20.06  c5.39,7.47,10.76,14.98,15.14,23.11c6.02,11.59,10.05,23.04,15.65,37.21c4.75,12.73,11.19,24.51,14.63,34.05  c4.17,12.25,6.57,25.08,12.08,36.87c4.78,11.37,10.36,22.36,15.73,33.45c7.38,15.36,15.14,30.57,24.09,45.08  c7.89,12.7,24.2,32.06,30.12,39.39c7.73,10.35,15.26,20.9,24.01,30.42c11.51,12.78,22.72,25.83,34.02,38.79  c5.36,6.18,10.56,12.53,16.56,18.11c5.37,4.89,11.24,9.2,17.14,13.41c13.4,10.04,28.01,18.55,43.8,24.24  c17.93,6.08,36.79,8.79,55.28,12.69c24.07,5.39,48.76,6.84,73.12,10.4c1.72,0.27,3.42,0.68,5.1,1.13  C1430.63,738.64,1424.91,736.78,1419.31,734.75z"/>
<path class="st2" d="M1808.27,739.21c-6.8-1.87-13.77-3.08-20.48-5.29c-7-2.17-13.62-5.41-20.62-7.57  c-13.24-3.59-26.95-5.26-40.45-7.6c-20.18-3.67-37.77-4.22-54.53-7.78c-7.84-1.98-15.48-4.67-23.38-6.42  c-11.77-2.29-23.63-4.31-34.96-8.34c-10.95-3.41-22.3-5.25-33.46-7.79c-14.35-3.75-28.73-7.34-43.19-10.65  c-11.33-2.83-22.33-6.8-33.66-9.6c-10.14-2.54-20.37-4.74-30.4-7.71c-9.59-3.03-18.97-6.66-28.35-10.28  c-9.1-3.49-18.31-6.67-27.35-10.31c-9.39-4.08-18.57-8.59-27.74-13.12c-8.48-4.14-17.31-7.5-25.71-11.81  c-8.14-4.39-15.65-9.85-23.86-14.13c-8.25-4.17-16.67-8.03-24.82-12.4c-14.26-8.5-28.71-16.81-44.41-22.4  c-10.09-3.89-19.02-8.26-30.51-15.54c-7.64-4.49-15.43-8.69-23.06-13.2c-9.31-6.01-17.72-13.31-27.5-18.62  c-7.48-4.11-15.08-8.02-22.3-12.57c-7-4.64-14.29-8.77-22.04-12.04c-7.24-3.24-14.59-6.21-21.76-9.58  c-5.58-2.63-11.14-5.29-16.93-7.45c-16.22-5.81-32.92-10.15-49.58-14.46c-14.2-2.45-28.66-3.14-42.95-4.95  c-6.38-0.71-12.76-1.51-19.16-1.99c-6.96-0.33-13.92-0.24-20.88-0.23c-14.53-0.18-29.09,1.17-43.29,4.31  c-11.42,2.57-22.57,6.31-33.38,10.8c-7.33,3.36-14.53,7.01-21.97,10.14c-2.33,0.93-4.66,1.87-6.99,2.8  c-4.14,1.59-8.05,3.69-12.06,5.56c-8.41,4.4-16.64,9.14-25.18,13.31c-12.48,5.95-25.11,11.57-37.59,17.52  c-5.99,3.18-12.03,6.25-18.11,9.26c-10.22,4.3-20.6,8.23-30.83,12.54c-19.94,8.72-38.16,17.34-55.47,24.41  c-17.81,7.64-34.43,17.68-51.97,25.87c-16.73,7.54-32.22,13.43-51.34,22.13c-20.8,8.11-58.83,20.98-85.16,30.21  c-9.13,2.66-18.26,5.33-27.35,8.1c-7.77,2.68-15.54,5.33-23.42,7.67c-25.25,7.79-51.36,12.2-77.19,17.6  c-14.05,2.7-28.26,4.54-42.16,7.96c-11.45,2.38-22.48,6.6-34.03,8.44c-3.14,0.36-6.3,0.58-9.45,0.76  c-7.33,0.21-14.67,0.02-21.97,0.78c-14.65,1.43-29.35,3.88-43.22,8.92c15.2-2.4,30.7-2.51,46.06-2.13  c6.4,0.09,12.75,0.98,19.14,1.17c8.5,0.22,16.97-1.04,25.14-3.34c9.85-2.71,19.8-5.07,29.81-7.12c9.46-1.7,18.97-3.06,28.44-4.69  c20.53-3.84,41.09-7.6,61.44-12.3c15.31-3.63,30.29-8.42,45.17-13.5c14.99-4.46,30.07-8.58,44.71-14.1  c21.48-7.48,43.09-14.64,64.3-22.88c10.07-3.9,19.82-8.61,29.78-12.8c6.9-2.84,24.15-9.97,35.08-15.7  c16.31-8.37,32.2-17.59,49.22-24.5c14.01-5.81,27.67-12.42,41.5-18.64c9.55-4.16,17.31-7.22,29.04-11.85  c9.57-3.67,18.66-8.39,27.72-13.17c5.88-2.88,11.86-5.57,17.84-8.22c9.67-4.61,19.52-8.83,29.01-13.81  c8.17-4.48,16.38-8.89,24.85-12.78c3.78-1.51,7.59-2.95,11.33-4.59c7.11-2.9,13.94-6.41,20.93-9.57c4.97-1.93,9.98-3.76,15.06-5.41  c6.7-2.11,13.5-3.88,20.39-5.25c8.43-1.59,12.75-1.98,23.15-2.72c11.41-0.21,22.83-0.33,34.23,0.1c17.03,1.68,34.02,3.7,51.05,5.41  c4.97,0.42,9.77,1.38,17.49,3.77c12.43,3.05,24.71,6.64,36.82,10.78c9,3.03,11.64,4.97,21.2,9.2c5.33,2.43,10.76,4.62,16.1,7.02  c5.14,2.25,10.23,4.58,15.1,7.37c4.5,2.64,8.79,5.62,13.3,8.25c8.28,4.89,16.96,9.07,25.08,14.22c6.7,4.37,12.82,9.53,19.56,13.83  c10.47,6.19,21.2,11.94,31.54,18.35c10.81,6.42,22.61,10.85,34.29,15.39c4.25,2.16,8.48,3.99,16.03,8.02  c7.04,3.99,13.85,8.39,21.08,12.03c7.54,4.03,15.46,7.33,22.92,11.51c6.25,3.36,12.09,7.4,18.2,10.99  c6.08,3.54,12.62,6.18,19.04,9.01c13.4,5.99,26.32,13.01,39.89,18.65c8.91,3.61,18,6.74,26.98,10.18  c9.82,3.78,19.62,7.58,29.66,10.74c10.76,3.11,21.72,5.4,32.54,8.24c8.96,2.18,17.61,5.45,26.55,7.69c8.7,2.38,17.52,4.25,26.3,6.33  c6.91,1.78,13.8,3.68,20.73,5.37c10.26,2.37,20.66,4.14,30.81,6.97c6.31,1.92,12.56,4.05,19.01,5.49c7.18,1.64,14.5,2.67,21.66,4.43  c7.82,1.77,15.33,4.64,23.17,6.32c10.58,2.01,21.34,2.93,32.01,4.35c14.24,1.66,23.44,3.46,39.93,6.15c3.03,0.49,6.06,0.92,9.1,1.34  c1.42,0.2,2.84,0.36,4.26,0.53c1.45,0.14,2.89,0.31,4.33,0.51c0.08,0.03,2.52,0.4,3.41,0.6c7.95,1.56,15.72,4.02,23.84,4.67  c7.34,0.81,14.74,0.37,22.11,0.67c1.57,0.02,3.13,0.26,4.7,0.38C1812.94,740.56,1810.64,739.79,1808.27,739.21z"/>
</svg>