<svg xmlns="http://www.w3.org/2000/svg" xmlns:xlink="http://www.w3.org/1999/xlink" viewBox="0 0 600 600" xmlns:v="https://vecta.io/nano"><style><![CDATA[.H{opacity:.7}.I{fill:#2e3440}.J{fill:#b48ead}.K{fill:#ebcb8b}.L{fill:#8fbcbb}.M{fill:#a3be8c}]]></style><path d="M14.47 29.94h127.39v127.39H14.47z" class="J"/><g class="H I"><path d="M107.75 154.76c-4.01-.11-8.09.03-11.92.24-8.17.45-15.01-1.07-22.98-.53-10 .67-19.83-.61-30.23-.17l-14.01.62-7.06.29-5.21.26-.11-2.61-.09-3.02-.11-7.5c-.04-5 0-9.99.16-14.96l1.16-49.24.6-24.02.41-12.04.24-5.83c.09-.72.18-1.36.27-1.91l1.21.18.54.09.25.05.03.01.11.01.23.01.46.02c20.41 1.1 43.61 1.78 64.98 1.59l27.08.07 15.03-.1 3.54-.08 1.71-.05.84-.03c.24-.01.69-.02.58-.03.1-.08.27-.18.57-.3.13.05.29.19.49.42-.05-.25-.09-.51-.14-.77-.33.04-.62.07-.89.08l-5.92.01-12.38-.16-24.38-.77 24.42-.2 12.31-.09 6-.05 2.07-.06.04 1.43.02.76.02 2.15.11 8.6.28 17.14.98 33.77-.74-34.09-.14-17.03-.01-8.5.02-4.8-12.65-.15-16.26-.29-32.2-1-31.65-1.54-15.59-.97-7.71-.54-9.04-.57-.54 8.21-.56 6.73.22-6.72.23-8.87 64.16 2.02 32.51.83 16.38.31 15.04.21-.1 13.2v14.43l.35 28.34c.4 18.6 1.16 36.51 2.41 53.24.43 5.71 1.04 12.06 1.67 16.84-1.86-19.21-2.93-39.9-3.43-61.36l-.37-32.69.07-16.62.22-16.2-15.31-.31-15.8-.4-31.31-1L18 26.5l-7.13-.17-.23 10.09-.23 6.49-.43 13-.72 26.1-.66 52.66-.19 11.32-.07 6.39-.06 11.16 13.69.07 62.01-.07c18.3-.27 50.92-.45 57.88-4.23-5.87-.13-12.36.33-18 .07 2.13-.34 4.58-.76 7.11-.99-2.4.02-5.07-.11-7.31.11 1.85-.2 3.75-.44 4.46-.82-2.89-.1-6.98.46-9.26.69-1.33.14-7.46 1.03-9.21.89 4.55-.72 10.29-1.4 13.99-2.27-1.57-.03-3.13.03-4.66-.05 1.89-.34 5.59-.48 6.55-.93-3.91.05-7.36.31-11.41.29-3.28-.01-6.24-.08-9.38.13 3.75-.34 8.79-.59 11.38-1.22-1.73-.15-3.56-.06-5.35.02.22-.06.35-.13.39-.21-.79.01-1.84-.08-2.67-.05-.02-.1-.2-.2-.04-.31-.02.07-.03.15-.05.22"/></g><path d="M14.47 157.33h127.39v127.39H14.47z" class="K"/><g class="H I"><use xlink:href="#B"/></g><path d="M14.47 284.72h127.39v127.39H14.47z" class="L"/><g class="H I"><use xlink:href="#B" y="127.39"/></g><path d="M141.86 29.94h127.39v127.39H141.86z" class="M"/><g class="H I"><use xlink:href="#C"/></g><path d="M137.62 156.27h127.39v127.39H137.62z" class="J"/><g class="H I"><use xlink:href="#D"/></g><path d="M138.68 285.78h127.39v127.39H138.68z" class="K"/><g class="H I"><path d="M172.79 288.35c4.01.11 8.09-.03 11.92-.24 8.17-.45 15.01 1.07 22.98.53 10-.67 19.83.61 30.23.17l14.01-.62 7.06-.29 5.21-.26.11 2.61.09 3.02.11 7.5c.04 5 0 9.99-.16 14.96l-1.16 49.24-.6 24.02-.41 12.04-.24 5.83c-.09.72-.18 1.36-.27 1.91l-1.21-.18-.54-.09-.25-.05-.03-.01-.11-.01-.23-.01-.46-.02c-20.41-1.1-43.61-1.78-64.98-1.59-6.9.06-16.9-.06-27.08-.08-5.09-.01-10.22.01-15.03.1l-3.54.08-1.71.05-.84.03c-.24.01-.69.02-.58.03-.1.08-.27.18-.57.3-.13-.05-.29-.19-.49-.42.05.25.09.51.14.77.33-.04.62-.07.89-.08l5.92-.01 12.38.16 24.38.77-24.42.2-12.31.09-6 .05-2.07.06-.04-1.43-.02-.76-.02-2.15-.11-8.6-.28-17.14-.98-33.77.74 34.09.14 17.03.01 8.5-.02 4.8 12.65.15 16.26.29 32.2 1 31.65 1.54 15.57.98 7.71.54 9.04.57.54-8.21.56-6.73-.22 6.72-.23 8.87-64.16-2.02-32.51-.83-16.38-.31-15.04-.21.1-13.2V384.2l-.35-28.34c-.4-18.6-1.16-36.51-2.41-53.24-.43-5.71-1.04-12.06-1.67-16.84 1.86 19.21 2.93 39.9 3.43 61.36l.37 32.69-.07 16.62-.22 16.2 15.31.31 15.8.4 31.31 1 60.93 2.25 7.13.17.23-10.09.23-6.49.43-13 .72-26.09.66-52.66.19-11.32.07-6.39.06-11.16-13.69-.07c-20.63-.19-41.4-.23-62.01.07-18.3.27-50.92.45-57.88 4.23 5.87.13 12.36-.33 18-.07-2.13.34-4.58.76-7.11.99 2.4-.02 5.07.11 7.31-.11-1.85.2-3.75.44-4.46.82 2.89.1 6.98-.46 9.26-.69 1.33-.14 7.46-1.03 9.21-.89-4.55.72-10.29 1.4-13.99 2.27 1.57.03 3.13-.03 4.66.05-1.89.34-5.59.48-6.55.93 3.91-.05 7.36-.31 11.41-.29 3.28.01 6.24.08 9.38-.13-3.75.34-8.79.59-11.38 1.22 1.73.15 3.56.06 5.35-.02-.22.06-.35.13-.39.21.79-.01 1.84.08 2.67.05.02.1.2.2.04.31.02-.07.03-.15.05-.22"/></g><path d="M272.43 27.82h127.39v127.39H272.43z" class="K"/><g class="H I"><path d="M365.71 152.64c-4.01-.11-8.09.03-11.92.24-8.17.45-15.01-1.07-22.98-.53-10 .67-19.83-.61-30.23-.17l-14.01.62-7.06.29-5.21.26-.11-2.61-.09-3.02-.11-7.5c-.04-5 0-9.99.16-14.96l1.16-49.24.6-24.02.41-12.04.24-5.83c.09-.72.18-1.36.27-1.91l1.21.18.54.09.25.05.03.01.11.01.23.01.46.02c20.41 1.1 43.61 1.78 64.98 1.59l27.08.07 15.03-.1 3.54-.08 1.71-.05.84-.03c.24-.01.69-.02.58-.03.1-.08.27-.18.57-.3.13.05.29.19.49.42-.05-.25-.09-.51-.14-.77-.33.04-.62.07-.89.08l-5.92.01-12.38-.16-24.38-.77 24.42-.2 12.31-.09 6-.05 2.07-.06.04 1.43.02.76.02 2.15.11 8.6.28 17.14.98 33.77-.74-34.09-.14-17.03-.01-8.5.02-4.8-12.65-.15-16.26-.29-32.2-1-31.65-1.54-15.57-.98-7.71-.54-9.04-.57-.54 8.21-.56 6.73.22-6.72.23-8.87 64.16 2.02 32.51.83 16.38.31 15.04.21-.1 13.2v14.43l.35 28.34c.4 18.6 1.16 36.51 2.41 53.24.43 5.71 1.04 12.06 1.67 16.84-1.86-19.21-2.93-39.9-3.43-61.36l-.37-32.69.07-16.62.22-16.2-15.31-.31-15.8-.4-31.31-1-60.93-2.25-7.13-.17-.23 10.09-.23 6.49-.43 13-.72 26.09-.66 52.66-.19 11.32-.07 6.39-.06 11.16 13.69.07 62.01-.07c18.3-.27 50.92-.45 57.88-4.23-5.87-.13-12.36.33-18 .07 2.13-.34 4.58-.76 7.11-.99-2.4.02-5.07-.11-7.31.11 1.85-.2 3.75-.44 4.46-.82-2.89-.1-6.98.46-9.26.69-1.33.14-7.46 1.03-9.21.89 4.55-.72 10.29-1.4 13.99-2.27-1.57-.03-3.13.03-4.66-.05 1.89-.34 5.59-.48 6.55-.93-3.91.05-7.36.31-11.41.29-3.28-.01-6.24-.08-9.38.13 3.75-.34 8.79-.59 11.38-1.22-1.73-.15-3.56-.06-5.35.02.22-.06.35-.13.39-.21-.79.01-1.84-.08-2.67-.05-.02-.1-.2-.2-.04-.31-.02.07-.03.15-.05.22"/></g><path d="M267.13 158.39h127.39v127.39H267.13z" class="L"/><g class="H I"><use xlink:href="#C" x="125.27" y="128.45"/></g><path d="M266.06 286.84h127.39v127.39H266.06z" class="M"/><g class="H I"><path d="M268.64 380.12c.11-4.01-.03-8.09-.24-11.92-.45-8.17 1.07-15.01.53-22.98-.67-10 .61-19.83.17-30.23l-.62-14.01-.29-7.06-.26-5.21 2.61-.11 3.02-.09 7.5-.11c5-.04 9.99 0 14.96.16l49.24 1.16 24.02.6 12.04.41 5.83.24c.72.09 1.36.18 1.91.27l-.18 1.21-.09.54-.05.25-.01.03-.01.11-.01.23-.02.46c-1.1 20.41-1.78 43.61-1.59 64.98l-.08 27.08.1 15.03.08 3.54.05 1.71.03.84c.01.24.02.69.03.58.08.1.18.27.3.57-.05.13-.19.29-.42.49.25-.05.51-.09.77-.14-.04-.33-.07-.62-.08-.89l-.01-5.92.16-12.38.77-24.38.2 24.42.09 12.31.05 6 .06 2.07-1.43.04-.76.02-2.15.02-8.6.11-17.14.28-33.77.98 34.09-.74 17.03-.14 8.5-.01 4.8.02.15-12.65.29-16.26 1-32.2 1.54-31.65.98-15.57.54-7.71.57-9.04-8.21-.54-6.73-.56 6.72.22 8.87.23-2.02 64.16-.83 32.51-.31 16.38-.21 15.04-13.2-.1h-14.43l-28.34.35c-18.6.4-36.51 1.16-53.24 2.41-5.71.43-12.06 1.04-16.84 1.67 19.21-1.86 39.9-2.93 61.36-3.43l32.69-.37 16.62.07 16.2.22.31-15.31.4-15.8 1-31.31 2.25-60.93.17-7.13-10.1-.26-6.49-.23-13-.43-26.09-.72-52.66-.66-11.32-.19-6.39-.07-11.16-.06-.07 13.69.07 62.01c.27 18.3.45 50.92 4.23 57.88.13-5.87-.33-12.36-.07-18 .34 2.13.76 4.58.99 7.11-.02-2.4.11-5.07-.11-7.31.2 1.85.44 3.75.82 4.46.1-2.89-.46-6.98-.69-9.26-.14-1.33-1.03-7.46-.89-9.21.72 4.55 1.4 10.29 2.27 13.99.03-1.57-.03-3.13.05-4.66.34 1.89.48 5.59.93 6.55-.05-3.91-.31-7.36-.29-11.41.01-3.28.08-6.24-.13-9.38.34 3.75.59 8.79 1.22 11.38.15-1.73.06-3.56-.02-5.35.06.22.13.35.21.39-.01-.79.08-1.84.05-2.67.1-.02.2-.2.31-.04-.07-.02-.15-.03-.22-.05"/></g><path d="M396.64 157.33h127.39v127.39H396.64z" class="M"/><g class="H I"><use xlink:href="#E"/></g><path d="M394.51 27.82H521.9v127.39H394.51z" class="L"/><g class="H I"><path d="M519.33 61.93c-.11 4.01.03 8.09.24 11.92.45 8.17-1.07 15.01-.53 22.98.67 10-.61 19.83-.17 30.23l.62 14.01.29 7.06.26 5.21-2.61.11-3.02.09-7.5.11c-5 .04-9.99 0-14.96-.16l-49.24-1.16-24.02-.6-12.04-.41-5.83-.24c-.72-.09-1.36-.18-1.91-.27l.18-1.21.09-.54.05-.25.01-.03.01-.11.01-.23.02-.46c1.1-20.41 1.78-43.61 1.59-64.98l.07-27.08-.1-15.03-.08-3.54-.05-1.71-.03-.84c-.01-.24-.02-.69-.03-.58-.08-.1-.18-.27-.3-.57.05-.13.19-.29.42-.49-.25.05-.51.09-.77.14.04.33.07.62.08.89l.01 5.92-.16 12.38-.77 24.38-.2-24.42-.09-12.31-.05-6-.06-2.07 1.43-.04.76-.02 2.15-.02 8.6-.11 17.14-.28 33.77-.98-34.09.74-17.03.14-8.5.01-4.8-.02-.15 12.65-.29 16.26-1 32.2-1.54 31.65-.98 15.57-.54 7.71-.57 9.04 8.21.54 6.73.56-6.72-.22-8.87-.23 2.02-64.16.83-32.51.31-16.38.21-15.04 13.2.1h14.43l28.34-.35c18.6-.4 36.51-1.16 53.24-2.41 5.71-.43 12.06-1.04 16.84-1.67-19.21 1.86-39.9 2.93-61.36 3.43l-32.69.37-16.62-.07-16.2-.22-.31 15.31-.4 15.8-1 31.31-2.25 60.93-.17 7.13 10.09.23 6.49.23 13 .43 26.09.72 52.66.66 11.32.19 6.39.07 11.16.06.07-13.69-.07-62.01c-.27-18.3-.45-50.92-4.23-57.88-.13 5.87.33 12.36.07 18-.34-2.13-.76-4.58-.99-7.11.02 2.4-.11 5.07.11 7.31-.2-1.85-.44-3.75-.82-4.46-.1 2.89.46 6.98.69 9.26.14 1.33 1.03 7.46.89 9.21-.72-4.55-1.4-10.29-2.27-13.99-.03 1.57.03 3.13-.05 4.66-.34-1.89-.48-5.59-.93-6.55.05 3.91.31 7.36.29 11.41-.01 3.28-.08 6.24.13 9.38-.34-3.75-.59-8.79-1.22-11.38-.15 1.73-.06 3.56.02 5.35-.06-.22-.13-.35-.21-.39.01.79-.08 1.84-.05 2.67-.1.02-.2.2-.31.04.07.02.15.03.22.05"/></g><path d="M395.58 285.78h127.39v127.39H395.58z" class="J"/><g class="H I"><use xlink:href="#D" x="257.96" y="129.51"/></g><path d="M14.47 412.1h127.39v127.39H14.47z" class="M"/><g class="H I"><use xlink:href="#D" x="-123.14" y="255.84"/></g><path d="M139.74 413.17h127.39v127.39H139.74z" class="L"/><g class="H I"><use xlink:href="#E" x="-256.9" y="255.84"/></g><path d="M268.19 415.29h127.39v127.39H268.19z" class="J"/><g class="H I"><path d="M393 449.4c-.11 4.01.03 8.09.24 11.92.45 8.17-1.07 15.01-.53 22.98.67 10-.61 19.83-.17 30.23l.62 14.01.29 7.06.26 5.21-2.61.11-3.02.09-7.5.11c-5 .04-9.99 0-14.96-.16l-49.24-1.16-24.02-.6-12.04-.41-5.83-.24c-.72-.09-1.36-.18-1.91-.27l.18-1.21.09-.54.05-.25.01-.03.01-.11.01-.23.02-.46c1.1-20.41 1.78-43.61 1.59-64.98l.08-27.08-.1-15.03-.08-3.54-.05-1.71-.03-.84c-.01-.24-.02-.69-.03-.58-.08-.1-.18-.27-.3-.57.05-.13.19-.29.42-.49-.25.05-.51.09-.77.14.04.33.07.62.08.89l.01 5.92-.16 12.38-.77 24.38-.2-24.42-.09-12.31-.05-6-.06-2.07 1.43-.04.76-.02 2.15-.02 8.6-.11 17.14-.28 33.77-.98-34.09.74-17.03.14-8.5.01-4.8-.02-.15 12.65-.29 16.26-1 32.2-1.54 31.65-.98 15.57-.54 7.71-.57 9.04 8.21.54 6.73.56-6.72-.22-8.87-.23 2.02-64.16.83-32.51.31-16.38.21-15.04 13.2.1h14.43l28.34-.35c18.6-.4 36.51-1.16 53.24-2.41 5.71-.43 12.06-1.04 16.84-1.67-19.21 1.86-39.9 2.93-61.36 3.43l-32.69.37-16.62-.07-16.2-.22-.31 15.31-.4 15.8-1 31.31-2.25 60.93-.17 7.13 10.09.23 6.49.23 13 .43 26.09.72 52.66.66 11.32.19 6.39.07 11.16.06.07-13.69-.07-62.01c-.27-18.3-.45-50.92-4.23-57.88-.13 5.87.33 12.36.07 18-.34-2.13-.76-4.58-.99-7.11.02 2.4-.11 5.07.11 7.31-.2-1.85-.44-3.75-.82-4.46-.1 2.89.46 6.98.69 9.26.14 1.33 1.03 7.46.89 9.21-.72-4.55-1.4-10.29-2.27-13.99-.03 1.57.03 3.13-.05 4.66-.34-1.89-.48-5.59-.93-6.55.05 3.91.31 7.36.29 11.41-.01 3.28-.08 6.24.13 9.38-.34-3.75-.59-8.79-1.22-11.38-.15 1.73-.06 3.56.02 5.35-.06-.22-.13-.35-.21-.39.01.79-.08 1.84-.05 2.67-.1.02-.2.2-.31.04.07.02.15.03.22.05"/></g><path d="M396.64 415.29h127.39v127.39H396.64z" class="K"/><g class="H I"><use xlink:href="#E" y="257.96"/></g><path d="M323.24,323.24H595V595H323.24V323.24z" fill="#f7df1e"/><path d="M394.7 550.34l20.8-12.59c4.01 7.11 7.66 13.13 16.42 13.13 8.39 0 13.68-3.28 13.68-16.05V448h25.54v87.19c0 26.45-15.5 38.49-38.13 38.49-20.44.01-32.29-10.57-38.31-23.34m90.3-2.73l20.79-12.04c5.47 8.94 12.59 15.51 25.17 15.51 10.58 0 17.33-5.29 17.33-12.59 0-8.76-6.93-11.86-18.61-16.96l-6.38-2.74c-18.43-7.84-30.65-17.69-30.65-38.49 0-19.15 14.59-33.75 37.4-33.75 16.24 0 27.91 5.66 36.3 20.43l-19.88 12.77c-4.38-7.84-9.12-10.94-16.42-10.94-7.48 0-12.22 4.74-12.22 10.94 0 7.66 4.74 10.76 15.69 15.51l6.38 2.74c21.71 9.3 33.93 18.79 33.93 40.13 0 22.99-18.06 35.57-42.32 35.57-23.71-.01-39.03-11.32-46.51-26.09"/><defs ><path id="B" d="M48.59 159.9c4.01.11 8.09-.03 11.92-.24 8.17-.45 15.01 1.07 22.98.53 10-.67 19.83.61 30.23.17l14.01-.62 7.06-.29 5.21-.26.11 2.61.09 3.02.11 7.5c.04 5 0 9.99-.16 14.96l-1.16 49.24-.6 24.02-.41 12.04-.24 5.83c-.09.72-.18 1.36-.27 1.91l-1.21-.18-.54-.09-.25-.05-.03-.01-.11-.01-.23-.01-.46-.02c-20.41-1.1-43.61-1.78-64.98-1.59-6.9.06-16.9-.06-27.08-.07-5.09-.01-10.22.01-15.03.1l-3.54.08-1.71.05-.84.03c-.24.01-.69.02-.58.03-.1.08-.27.18-.57.3-.13-.05-.29-.19-.49-.42.05.25.09.51.14.77.33-.04.62-.07.89-.08l5.92-.01 12.38.16 24.38.77-24.42.2-12.31.09-6 .05-2.07.06-.04-1.43-.02-.76-.02-2.15-.11-8.6-.28-17.14-.98-33.77.74 34.09.14 17.03.01 8.5-.02 4.8 12.65.15 16.26.29 32.2 1 31.65 1.54 15.57.98 7.71.54 9.04.57.54-8.21.56-6.73-.22 6.72-.23 8.87-64.16-2.02-32.51-.83-16.38-.31-15.04-.21.1-13.2v-14.43l-.35-28.34c-.4-18.6-1.16-36.51-2.41-53.24-.43-5.71-1.04-12.06-1.67-16.84 1.86 19.21 2.93 39.9 3.43 61.36l.37 32.69-.07 16.62-.22 16.2 15.31.31 15.8.4 31.31 1 60.93 2.25 7.13.17.23-10.09.23-6.49.43-13 .72-26.09.66-52.66.19-11.32.07-6.39.06-11.16-13.69-.07c-20.63-.19-41.4-.23-62.01.07-18.3.27-50.92.45-57.88 4.23 5.87.13 12.36-.33 18-.07-2.13.34-4.58.76-7.11.99 2.4-.02 5.07.11 7.31-.11-1.85.2-3.75.44-4.46.82 2.89.1 6.98-.46 9.26-.69 1.33-.14 7.46-1.03 9.21-.89-4.55.72-10.29 1.4-13.99 2.27 1.57.03 3.13-.03 4.66.05-1.89.34-5.59.48-6.55.93 3.91-.05 7.36-.31 11.41-.29 3.28.01 6.24.08 9.38-.13-3.75.34-8.79.59-11.38 1.22 1.73.15 3.56.06 5.35-.02-.22.06-.35.13-.39.21.79-.01 1.84.08 2.67.05.02.1.2.2.04.31.02-.07.03-.15.05-.22"/><path id="C" d="M144.43 123.22c.11-4.01-.03-8.09-.24-11.92-.45-8.17 1.07-15.01.53-22.98-.67-10 .61-19.83.17-30.23l-.62-14.01-.29-7.06-.26-5.21 2.61-.11 3.02-.09 7.5-.11c5-.04 9.99 0 14.96.16l49.24 1.16 24.02.6 12.04.41 5.83.24c.72.09 1.36.18 1.91.27l-.18 1.21-.09.54-.05.25-.01.03-.01.11-.01.23-.02.46c-1.1 20.41-1.78 43.61-1.59 64.98l-.08 27.08.1 15.03.08 3.54.05 1.71.03.84c.01.24.02.69.03.58.08.1.18.27.3.57-.05.13-.19.29-.42.49.25-.05.51-.09.77-.14-.04-.33-.07-.62-.08-.89l-.01-5.92.16-12.38.77-24.38.2 24.42.09 12.31.05 6 .06 2.07-1.43.04-.76.02-2.15.02-8.6.11-17.14.28-33.77.98 34.09-.74 17.03-.14 8.5-.01 4.8.02.15-12.65.29-16.26 1-32.2 1.54-31.65.98-15.57.54-7.71.57-9.04-8.21-.54-6.73-.56 6.72.22 8.87.23-2.02 64.16-.83 32.51-.31 16.38-.21 15.04-13.2-.1h-14.43l-28.34.35c-18.6.4-36.51 1.16-53.24 2.41-5.71.43-12.06 1.04-16.84 1.67 19.21-1.86 39.9-2.93 61.36-3.43l32.69-.37 16.62.07 16.2.22.31-15.31.4-15.8 1-31.31 2.25-60.93.17-7.13-10.09-.23-6.49-.23-13-.43-26.09-.72-52.66-.66-11.32-.19-6.39-.07-11.16-.06-.07 13.69.07 62.01c.27 18.3.45 50.92 4.23 57.88.13-5.87-.33-12.36-.07-18 .34 2.13.76 4.58.99 7.11-.02-2.4.11-5.07-.11-7.31.2 1.85.44 3.75.82 4.46.1-2.89-.46-6.98-.69-9.26-.14-1.33-1.03-7.46-.89-9.21.72 4.55 1.4 10.29 2.27 13.99.03-1.57-.03-3.13.05-4.66.34 1.89.48 5.59.93 6.55-.05-3.91-.31-7.36-.29-11.41.01-3.28.08-6.24-.13-9.38.34 3.75.59 8.79 1.22 11.38.15-1.73.06-3.56-.02-5.35.06.22.13.35.21.39-.01-.79.08-1.84.05-2.67.1-.02.2-.2.31-.04-.07-.02-.15-.03-.22-.05"/><path id="D" d="M230.89 281.08c-4.01-.11-8.09.03-11.92.24-8.17.45-15.01-1.07-22.98-.53-10 .67-19.83-.61-30.23-.17l-14.01.62-7.06.29-5.21.26-.11-2.61-.09-3.02-.11-7.5c-.04-5 0-9.99.16-14.96l1.16-49.24.6-24.02.41-12.04.24-5.83c.09-.72.18-1.36.27-1.91l1.21.18.54.09.25.05.03.01.11.01.23.01.46.02c20.41 1.1 43.61 1.78 64.98 1.59l27.08.08 15.03-.1 3.54-.08 1.71-.05.84-.03c.24-.01.69-.02.58-.03.1-.08.27-.18.57-.3.13.05.29.19.49.42-.05-.25-.09-.51-.14-.77-.33.04-.62.07-.89.08l-5.92.01-12.38-.16-24.38-.77 24.42-.2 12.31-.09 6-.05 2.07-.06.04 1.43.02.76.02 2.15.11 8.6.28 17.14.98 33.77-.74-34.09-.14-17.03-.01-8.5.02-4.8-12.65-.15-16.26-.29-32.2-1-31.65-1.54-15.57-.98-7.71-.54-9.04-.57-.54 8.21-.56 6.73.22-6.72.23-8.87 64.16 2.02 32.51.83 16.38.31 15.04.21-.1 13.2v14.43l.35 28.34c.4 18.6 1.16 36.51 2.41 53.24.43 5.71 1.04 12.06 1.67 16.84-1.86-19.21-2.93-39.9-3.43-61.36l-.37-32.69.07-16.62.22-16.2-15.31-.31-15.8-.4-31.31-1-60.93-2.25-7.13-.17-.23 10.09-.23 6.49-.43 13-.72 26.09-.66 52.66-.19 11.32-.07 6.39-.06 11.16 13.69.07 62.01-.07c18.3-.27 50.92-.45 57.88-4.23-5.87-.13-12.36.33-18 .07 2.13-.34 4.58-.76 7.11-.99-2.4.02-5.07-.11-7.31.11 1.85-.2 3.75-.44 4.46-.82-2.89-.1-6.98.46-9.26.69-1.33.14-7.46 1.03-9.21.89 4.55-.72 10.29-1.4 13.99-2.27-1.57-.03-3.13.03-4.66-.05 1.89-.34 5.59-.48 6.55-.93-3.91.05-7.36.31-11.41.29-3.28-.01-6.24-.08-9.38.13 3.75-.34 8.79-.59 11.38-1.22-1.73-.15-3.56-.06-5.35.02.22-.06.35-.13.39-.21-.79.01-1.84-.08-2.67-.05-.02-.1-.2-.2-.04-.31-.02.07-.03.15-.05.22"/><path id="E" d="M399.21 250.6c.11-4.01-.03-8.09-.24-11.92-.45-8.17 1.07-15.01.53-22.98-.67-10 .61-19.83.17-30.23l-.62-14.01-.29-7.06-.26-5.21 2.61-.11 3.02-.09 7.5-.11c5-.04 9.99 0 14.96.16l49.24 1.16 24.02.6 12.04.41 5.83.24c.72.09 1.36.18 1.91.27l-.18 1.21-.09.54-.05.25-.01.03-.01.11-.01.23-.02.46c-1.1 20.41-1.78 43.61-1.59 64.98l-.07 27.08.1 15.03.08 3.54.05 1.71.03.84c.01.24.02.69.03.58.08.1.18.27.3.57-.05.13-.19.29-.42.49.25-.05.51-.09.77-.14-.04-.33-.07-.62-.08-.89l-.01-5.92.16-12.38.77-24.38.2 24.42.09 12.31.05 6 .06 2.07-1.43.04-.76.02-2.15.02-8.6.11-17.14.28-33.77.98 34.09-.74 17.03-.14 8.5-.01 4.8.02.15-12.65.29-16.26 1-32.2 1.54-31.65.98-15.57.54-7.71.57-9.04-8.21-.54-6.73-.56 6.72.22 8.87.23-2.02 64.16-.83 32.51-.31 16.38-.21 15.04-13.2-.1h-14.43l-28.34.35c-18.6.4-36.51 1.16-53.24 2.41-5.71.43-12.06 1.04-16.84 1.67 19.21-1.86 39.9-2.93 61.36-3.43l32.69-.37 16.62.07 16.2.22.31-15.31.4-15.8 1-31.31 2.25-60.93.17-7.13-10.09-.23-6.49-.23-13-.43-26.09-.72-52.66-.66-11.32-.19-6.39-.07-11.16-.06-.07 13.69.07 62.01c.27 18.3.45 50.92 4.23 57.88.13-5.87-.33-12.36-.07-18 .34 2.13.76 4.58.99 7.11-.02-2.4.11-5.07-.11-7.31.2 1.85.44 3.75.82 4.46.1-2.89-.46-6.98-.69-9.26-.14-1.33-1.03-7.46-.89-9.21.72 4.55 1.4 10.29 2.27 13.99.03-1.57-.03-3.13.05-4.66.34 1.89.48 5.59.93 6.55-.05-3.91-.31-7.36-.29-11.41.01-3.28.08-6.24-.13-9.38.34 3.75.59 8.79 1.22 11.38.15-1.73.06-3.56-.02-5.35.06.22.13.35.21.39-.01-.79.08-1.84.05-2.67.1-.02.2-.2.31-.04-.07-.02-.15-.03-.22-.05"/></defs></svg>