<svg viewBox="0 0 600 200" style="user-select:none;-webkit-user-select:none;" data-v-4d8e73e4=""><path id="testpath" class="logistic-path" d="M30,30.118436655272077 33.59999999999999,30.13001144360623 37.200000000000024,30.142716190480197 40.80000000000001,30.156660950391267 44.4,30.171966444603996 47.999999999999986,30.188765084301274 51.600000000000016,30.207202089679395 55.2,30.227436713529816 58.8,30.249643578518068 62.399999999999984,30.274014138065635 66.00000000000001,30.30075827146564 69.6,30.330106024611247 73.19999999999999,30.362309508475487 76.80000000000003,30.397644968250916 80.4,30.43641503681528 84,30.478951186926665 87.6,30.525616397241496 91.19999999999999,30.576808047868653 94.80000000000001,30.632961061688626 98.39999999999999,30.694551308036424 101.99999999999999,30.76209928552398 105.6,30.83617410069944 109.19999999999999,30.91739775883382 112.79999999999998,31.00644978230593 116.4,31.10407217071376 120.00000000000001,31.21107471485867 123.6,31.328340673974033 127.19999999999999,31.456832821839576 130.8,31.597599862533585 134.4,31.751783210303934 138,31.9206241201255 141.60000000000002,32.10547114566455 145.2,32.30778788926651 148.8,32.529160993865105 152.39999999999998,32.7713083089988 156,33.03608714200702 159.6,33.325502480560985 163.2,33.641715043557475 166.79999999999998,33.987048983707425 170.4,34.36399902659272 174,34.775236787363866 177.6,35.22361595761032 181.2,35.712176001498364 184.8,36.24414394262473 188.39999999999998,36.8229337622099 192,37.45214286685294 195.60000000000002,38.13554502238936 199.20000000000002,38.87707909258509 202.8,39.68083287158365 206.39999999999998,40.5510212624211 210.00000000000003,41.49195803691758 213.6,42.50802042239006 217.2,43.603605806504724 220.8,44.78307994258195 224.39999999999998,46.05071618347913 227.99999999999997,47.410625482129575 231.60000000000002,48.866677178862574 235.2,50.422410955108845 238.8,52.08094077121106 242.39999999999998,53.84485211819613 246,55.71609448738438 249.6,57.69587157642363 253.20000000000002,59.78453237450281 256.8,61.981466861636754 260.4,64.285010566349 264,66.69236259549379 267.6,69.19952191966998 271.2,71.80124661153764 274.79999999999995,74.49104034696197 278.4,77.26116976339637 282,80.10271522521857 285.6,83.00565620209711 289.2,85.95899088790023 292.79999999999995,88.95088797018198 296.4,91.9688667254995 300,95 303.59999999999997,98.0311332745005 307.20000000000005,101.049112029818 310.8,104.04100911209977 314.4,106.99434379790289 318,109.89728477478143 321.6,112.73883023660365 325.2,115.508959653038 328.8,118.19875338846236 332.4,120.80047808033002 336,123.30763740450621 339.6,125.714989433651 343.2,128.01853313836324 346.79999999999995,130.21546762549718 350.40000000000003,132.30412842357637 354,134.2839055126156 357.6,136.15514788180388 361.20000000000005,137.91905922878897 364.79999999999995,139.57758904489114 368.40000000000003,141.13332282113743 372,142.5893745178704 375.6,143.94928381652088 379.20000000000005,145.21692005741804 382.79999999999995,146.39639419349527 386.3999999999999,147.49197957760992 390.00000000000006,148.5080419630824 393.6,149.44897873757893 397.2,150.31916712841635 400.79999999999995,151.12292090741488 404.4,151.86445497761065 408,152.5478571331471 411.6,153.17706623779011 415.20000000000005,153.7558560573753 418.79999999999995,154.28782399850164 422.4,154.77638404238968 425.99999999999994,155.22476321263616 429.6,155.63600097340728 433.20000000000005,156.0129510162926 436.79999999999995,156.35828495644253 440.4,156.674497519439 444.00000000000006,156.963912857993 447.6,157.22869169100122 451.20000000000005,157.47083900613492 454.79999999999995,157.69221211073346 458.4,157.89452885433545 462,158.07937587987448 465.6,158.24821678969607 469.2,158.40240013746643 472.79999999999995,158.54316717816042 476.40000000000003,158.67165932602597 480,158.78892528514135 483.6000000000001,158.89592782928622 487.20000000000005,158.9935502176941 490.79999999999995,159.08260224116617 494.4,159.16382589930058 497.99999999999994,159.237900714476 501.59999999999997,159.3054486919636 505.2000000000001,159.36703893831137 508.8,159.42319195213136 512.4,159.4743836027585 516,159.52104881307332 519.5999999999999,159.5635849631847 523.2,159.60235503174908 526.8,159.63769049152452 530.4000000000001,159.66989397538876 534,159.69924172853433 537.6,159.7259858619344 541.2,159.7503564214819 544.8,159.7725632864702 548.4,159.7927979103206 551.9999999999999,159.81123491569872 555.5999999999999,159.82803355539602 559.2,159.84333904960874 562.8,159.8572838095198 566.4000000000001,159.86998855639376 " stroke="var(--nord6)" fill="none" stroke-width="2" data-v-4d8e73e4=""></path></svg>
