<?xml version="1.0" encoding="utf-8"?>
<!-- Generator: Adobe Adobe Illustrator 24.2.0, SVG Export Plug-In . SVG Version: 6.00 Build 0)  -->
<svg version="1.1" id="Layer_1" xmlns="http://www.w3.org/2000/svg" xmlns:xlink="http://www.w3.org/1999/xlink" x="0px" y="0px"
	 width="1920px" height="590px" viewBox="0 0 1920 590" style="enable-background:new 0 0 1920 590;" xml:space="preserve">
<style type="text/css">
	.st0{fill:none;stroke:#ECEFF4;stroke-width:22;stroke-miterlimit:10;}
	.st1{fill:none;stroke:#ECEFF4;stroke-width:9;stroke-miterlimit:10;stroke-dasharray:0,0,0,0,0,0;}
</style>
<g>
	<path id="testpath" class="st0" d="M202.05,151.99l10.53,0.03l10.53,0.04l10.53,0.04l10.53,0.04l10.53,0.05l10.53,0.05l10.53,0.06
		l10.53,0.06l10.53,0.07l10.53,0.08l10.53,0.09l10.53,0.09l10.53,0.1l10.53,0.11l10.53,0.12l10.53,0.14l10.53,0.15l10.53,0.16
		l10.53,0.18l10.53,0.2l10.53,0.22l10.53,0.24l10.53,0.26l10.53,0.29l10.53,0.31l10.53,0.34l10.53,0.38l10.53,0.41l10.53,0.45
		l10.53,0.49l10.53,0.54l10.53,0.59l10.53,0.65l10.53,0.71l10.53,0.77l10.53,0.85l10.53,0.92l10.53,1.01l10.53,1.1l10.53,1.2
		l10.53,1.31l10.53,1.43l10.53,1.56l10.53,1.69l10.53,1.84l10.53,2l10.53,2.17l10.53,2.35l10.53,2.54l10.53,2.75l10.53,2.97
		l10.53,3.2l10.53,3.45l10.53,3.71l10.53,3.98l10.53,4.26l10.53,4.55l10.53,4.85l10.53,5.16l10.53,5.47l10.53,5.79l10.53,6.11
		l10.53,6.42l10.53,6.74l10.53,7.04l10.53,7.33l10.53,7.61l10.53,7.87l10.53,8.1l10.53,8.31l10.53,8.49l10.53,8.64l10.53,8.75
		l10.53,8.83l10.53,8.86l10.53,8.86l10.53,8.83l10.53,8.75l10.53,8.64l10.53,8.49l10.53,8.31l10.53,8.1l10.53,7.87l10.53,7.61
		l10.53,7.33l10.53,7.04l10.53,6.74l10.53,6.42l10.53,6.11l10.53,5.79l10.53,5.47l10.53,5.16l10.53,4.85l10.53,4.55l10.53,4.26
		l10.53,3.98l10.53,3.71l10.53,3.45l10.53,3.2l10.53,2.97l10.53,2.75l10.53,2.54l10.53,2.35l10.53,2.17l10.53,2l10.53,1.84
		l10.53,1.69l10.53,1.56l10.53,1.43l10.53,1.31l10.53,1.2l10.53,1.1l10.53,1.01l10.53,0.92l10.53,0.85l10.53,0.77l10.53,0.71
		l10.53,0.65l10.53,0.59l10.53,0.54l10.53,0.49l10.53,0.45l10.53,0.41l10.53,0.38l10.53,0.34l10.53,0.31l10.53,0.29l10.53,0.26
		l10.53,0.24l10.53,0.22l10.53,0.2l10.53,0.18l10.53,0.16l10.53,0.15l10.53,0.14l10.53,0.12l10.53,0.11l10.53,0.1l10.53,0.09
		l10.53,0.09l10.53,0.08l10.53,0.07l10.53,0.06l10.53,0.06l10.53,0.05l10.53,0.05l10.53,0.04l10.53,0.04l10.53,0.04"/>
</g>
<line class="st1" x1="642.88" y1="143.77" x2="920.88" y2="231.77"/>
<path class="st1" d="M918.53,231.18c4.88-0.19,43.15,20.88,68.46-4.57c22.91-23.03-53.33-49.14-53.33-49.14"/>
<ellipse class="st1" cx="874.3" cy="72.08" rx="24" ry="23.5"/>
<path class="st1" d="M865.15,96.22c-7.74,32.74-34.3,76.29-26.84,92.97c6.29,14.06,41.79,15.56,62.59,21.4
	c12.48,3.47,27.29,3.41,35.8,13.18"/>
<path class="st1" d="M945.46,180.4c-7.23-8.27-14.46-16.55-21.69-24.82c-5.34-6.11-10.72-12.26-17.07-17.31
	c-13.34-10.61-30.1-15.75-44.26-16.95c22.23,20.99,44.47,41.98,66.7,62.97"/>
<path class="st1" d="M839.76,192.22c17.95-1.9,36.28-3.78,53.88,0.22c6.7,1.52,13.18,3.87,19.81,5.67
	c6.86,1.86,13.89,3.12,20.97,3.76"/>
<path class="st1" d="M634.59,99.3c-22.52-4.91-45.03-9.82-67.55-14.74"/>
<path class="st1" d="M612.41,119.27c-29.76-9.66-60.79-15.37-92.04-16.92"/>
<path class="st1" d="M605.9,135.21c-21.66-9.89-46.41-12.89-69.8-8.44"/>
</svg>
